<?xml version="1.0" standalone="no"?>
<!DOCTYPE svg PUBLIC "-//W3C//DTD SVG 1.1//EN" "http://www.w3.org/Graphics/SVG/1.1/DTD/svg11.dtd">
<svg xmlns="http://www.w3.org/2000/svg" xmlns:xlink="http://www.w3.org/1999/xlink" width="375" zoomAndPan="magnify" viewBox="0 0 375 374.999991" height="375" preserveAspectRatio="xMidYMid meet" version="1.0"><defs><g/><clipPath id="id1"><path d="M 37.5 112.5 L 120 112.5 L 120 262.5 L 37.5 262.5 Z M 37.5 112.5 " clip-rule="nonzero"/></clipPath><clipPath id="id2"><path d="M 20 207 L 84 207 L 84 237.9375 L 20 237.9375 Z M 20 207 " clip-rule="nonzero"/></clipPath><clipPath id="id3"><path d="M 20 151 L 139.09375 151 L 139.09375 213 L 20 213 Z M 20 151 " clip-rule="nonzero"/></clipPath><clipPath id="id4"><path d="M 78 136.6875 L 114 136.6875 L 114 173 L 78 173 Z M 78 136.6875 " clip-rule="nonzero"/></clipPath><clipPath id="id5"><path d="M 18.34375 217 L 29 217 L 29 228 L 18.34375 228 Z M 18.34375 217 " clip-rule="nonzero"/></clipPath><clipPath id="id6"><path d="M 18.34375 192 L 29 192 L 29 203 L 18.34375 203 Z M 18.34375 192 " clip-rule="nonzero"/></clipPath></defs><g clip-path="url(#id1)"><path fill="rgb(0%, 76.858521%, 79.998779%)" d="M 54.351562 115.558594 C 46.78125 115.558594 40.621094 121.730469 40.621094 129.316406 L 40.621094 245.683594 C 40.621094 253.273438 46.78125 259.445312 54.351562 259.445312 L 103.160156 259.445312 C 110.730469 259.445312 116.890625 253.273438 116.890625 245.683594 L 116.890625 129.316406 C 116.890625 121.730469 110.730469 115.558594 103.160156 115.558594 Z M 103.160156 262.503906 L 54.351562 262.503906 C 45.097656 262.503906 37.570312 254.957031 37.570312 245.683594 L 37.570312 129.316406 C 37.570312 120.042969 45.097656 112.5 54.351562 112.5 L 103.160156 112.5 C 112.414062 112.5 119.941406 120.042969 119.941406 129.316406 L 119.941406 245.683594 C 119.941406 254.957031 112.414062 262.503906 103.160156 262.503906 " fill-opacity="1" fill-rule="nonzero"/></g><path fill="rgb(0%, 76.858521%, 79.998779%)" d="M 84.808594 120.085938 L 72.605469 120.085938 C 72.183594 120.085938 71.84375 119.742188 71.84375 119.320312 C 71.84375 118.898438 72.183594 118.558594 72.605469 118.558594 L 84.808594 118.558594 C 85.230469 118.558594 85.574219 118.898438 85.574219 119.320312 C 85.574219 119.742188 85.230469 120.085938 84.808594 120.085938 " fill-opacity="1" fill-rule="nonzero"/><path fill="rgb(0%, 76.858521%, 79.998779%)" d="M 91.570312 119.320312 C 91.570312 119.953125 91.058594 120.46875 90.425781 120.46875 C 89.796875 120.46875 89.285156 119.953125 89.285156 119.320312 C 89.285156 118.6875 89.796875 118.175781 90.425781 118.175781 C 91.058594 118.175781 91.570312 118.6875 91.570312 119.320312 " fill-opacity="1" fill-rule="nonzero"/><path fill="rgb(0%, 76.858521%, 79.998779%)" d="M 39.136719 184.386719 L 38.679688 182.863281 L 49.746094 179.542969 C 50.015625 179.464844 50.234375 179.261719 50.335938 179 L 51.960938 174.875 C 52.277344 174.070312 52.984375 173.484375 53.832031 173.324219 L 63.425781 171.539062 C 63.714844 171.484375 63.960938 171.292969 64.085938 171.027344 L 68.925781 160.75 C 69.109375 160.355469 69.578125 160.1875 69.972656 160.375 L 69.984375 160.378906 C 70.378906 160.566406 70.546875 161.035156 70.359375 161.429688 L 65.523438 171.707031 C 65.183594 172.433594 64.507812 172.957031 63.714844 173.101562 L 54.125 174.890625 C 53.8125 174.949219 53.554688 175.164062 53.4375 175.457031 L 51.8125 179.585938 C 51.53125 180.304688 50.941406 180.847656 50.203125 181.070312 L 39.136719 184.386719 " fill-opacity="1" fill-rule="nonzero"/><path fill="rgb(0%, 76.858521%, 79.998779%)" d="M 75.136719 168.429688 L 67.179688 166.753906 L 67.507812 165.195312 L 75.464844 166.867188 C 75.886719 166.960938 76.160156 167.375 76.074219 167.800781 L 76.070312 167.816406 C 75.980469 168.246094 75.5625 168.515625 75.136719 168.429688 " fill-opacity="1" fill-rule="nonzero"/><path fill="rgb(0%, 76.858521%, 79.998779%)" d="M 57.6875 173.402344 L 56.558594 166.550781 L 58.128906 166.289062 L 59.253906 173.140625 L 57.6875 173.402344 " fill-opacity="1" fill-rule="nonzero"/><path fill="rgb(0%, 76.858521%, 79.998779%)" d="M 57.871094 167.015625 L 56.816406 165.824219 L 59.921875 163.0625 C 60.246094 162.777344 60.742188 162.804688 61.03125 163.128906 L 61.042969 163.144531 C 61.328125 163.46875 61.300781 163.964844 60.972656 164.253906 L 57.871094 167.015625 " fill-opacity="1" fill-rule="nonzero"/><path fill="rgb(0%, 76.858521%, 79.998779%)" d="M 57.015625 167.144531 L 48.933594 163.453125 C 48.539062 163.273438 48.363281 162.808594 48.542969 162.410156 L 48.550781 162.394531 C 48.730469 162 49.195312 161.824219 49.589844 162.003906 L 57.675781 165.695312 L 57.015625 167.144531 " fill-opacity="1" fill-rule="nonzero"/><path fill="rgb(0%, 76.858521%, 79.998779%)" d="M 64.925781 214.527344 L 64.910156 214.519531 C 64.574219 214.242188 64.523438 213.746094 64.800781 213.410156 L 73.519531 202.664062 C 73.710938 202.429688 73.773438 202.117188 73.6875 201.824219 L 71.964844 195.984375 C 71.84375 195.578125 71.460938 195.304688 71.039062 195.328125 L 63.925781 195.683594 C 62.824219 195.742188 61.832031 195.082031 61.449219 194.046875 L 58.859375 187.035156 C 58.726562 186.675781 58.382812 186.4375 58 186.4375 L 49.339844 186.4375 C 48.601562 186.4375 47.902344 186.109375 47.425781 185.546875 L 44.636719 182.238281 L 45.851562 181.210938 L 48.640625 184.519531 C 48.8125 184.726562 49.070312 184.84375 49.339844 184.84375 L 58 184.84375 C 59.046875 184.84375 59.984375 185.5 60.347656 186.484375 L 62.941406 193.492188 C 63.082031 193.871094 63.445312 194.117188 63.847656 194.09375 L 70.960938 193.738281 C 72.117188 193.679688 73.160156 194.421875 73.488281 195.53125 L 75.210938 201.371094 C 75.445312 202.167969 75.273438 203.027344 74.753906 203.667969 L 66.03125 214.414062 C 65.757812 214.753906 65.261719 214.800781 64.925781 214.527344 " fill-opacity="1" fill-rule="nonzero"/><path fill="rgb(0%, 76.858521%, 79.998779%)" d="M 75.558594 213.359375 L 70.273438 207.765625 L 71.425781 206.667969 L 76.714844 212.269531 C 77.011719 212.582031 77 213.082031 76.683594 213.382812 L 76.671875 213.390625 C 76.355469 213.691406 75.859375 213.679688 75.558594 213.359375 " fill-opacity="1" fill-rule="nonzero"/><path fill="rgb(0%, 76.858521%, 79.998779%)" d="M 52.332031 196.664062 L 51.484375 195.316406 L 60.488281 189.621094 L 61.335938 190.96875 L 52.332031 196.664062 " fill-opacity="1" fill-rule="nonzero"/><path fill="rgb(0%, 76.858521%, 79.998779%)" d="M 52.269531 202.472656 L 51.125 196.132812 L 52.691406 195.847656 L 53.832031 202.1875 C 53.910156 202.617188 53.625 203.027344 53.199219 203.105469 L 53.183594 203.109375 C 52.753906 203.183594 52.347656 202.902344 52.269531 202.472656 " fill-opacity="1" fill-rule="nonzero"/><path fill="rgb(0%, 76.858521%, 79.998779%)" d="M 51.621094 196.734375 L 45.691406 194.417969 C 45.285156 194.257812 45.085938 193.800781 45.242188 193.394531 L 45.246094 193.382812 C 45.40625 192.976562 45.859375 192.777344 46.265625 192.933594 L 52.199219 195.25 L 51.621094 196.734375 " fill-opacity="1" fill-rule="nonzero"/><path fill="rgb(0%, 76.858521%, 79.998779%)" d="M 67.59375 195.144531 L 66.054688 194.753906 L 69.042969 182.949219 L 70.582031 183.34375 L 67.59375 195.144531 " fill-opacity="1" fill-rule="nonzero"/><path fill="rgb(0%, 76.858521%, 79.998779%)" d="M 70.003906 183.917969 L 69.621094 182.371094 L 75.722656 180.863281 C 76.144531 180.761719 76.570312 181.015625 76.675781 181.441406 L 76.679688 181.457031 C 76.785156 181.878906 76.527344 182.304688 76.105469 182.410156 L 70.003906 183.917969 " fill-opacity="1" fill-rule="nonzero"/><path fill="rgb(0%, 76.858521%, 79.998779%)" d="M 69.3125 183.765625 L 65.441406 180.628906 C 65.105469 180.355469 65.054688 179.859375 65.328125 179.519531 L 65.335938 179.507812 C 65.609375 179.171875 66.105469 179.117188 66.441406 179.390625 L 70.3125 182.527344 L 69.3125 183.765625 " fill-opacity="1" fill-rule="nonzero"/><g clip-path="url(#id2)"><path fill="rgb(36.079407%, 88.238525%, 90.19928%)" d="M 83.75 210.082031 C 83.75 235.761719 64.269531 237.910156 46.015625 237.910156 C 25.390625 237.910156 20.859375 226.953125 20.859375 222.730469 C 20.859375 222.394531 20.925781 222.074219 21.050781 221.761719 C 21.179688 221.453125 21.363281 221.179688 21.597656 220.941406 C 21.832031 220.707031 22.105469 220.523438 22.414062 220.394531 C 22.722656 220.265625 23.042969 220.203125 23.375 220.203125 C 23.710938 220.203125 24.03125 220.265625 24.339844 220.394531 C 24.648438 220.523438 24.917969 220.707031 25.15625 220.941406 C 25.390625 221.179688 25.574219 221.453125 25.699219 221.761719 C 25.828125 222.074219 25.890625 222.394531 25.890625 222.730469 C 25.890625 225.359375 29.589844 232.851562 46.015625 232.851562 C 66.730469 232.851562 78.71875 229.128906 78.71875 210.082031 C 78.71875 209.746094 78.785156 209.425781 78.910156 209.113281 C 79.039062 208.804688 79.222656 208.53125 79.457031 208.292969 C 79.691406 208.054688 79.964844 207.875 80.273438 207.746094 C 80.582031 207.617188 80.902344 207.554688 81.234375 207.554688 C 81.570312 207.554688 81.890625 207.617188 82.199219 207.746094 C 82.507812 207.875 82.777344 208.054688 83.015625 208.292969 C 83.25 208.53125 83.433594 208.804688 83.558594 209.113281 C 83.6875 209.425781 83.75 209.746094 83.75 210.082031 Z M 83.75 210.082031 " fill-opacity="1" fill-rule="nonzero"/></g><g clip-path="url(#id3)"><path fill="rgb(36.079407%, 88.238525%, 90.19928%)" d="M 139.09375 174.664062 L 139.09375 189.84375 C 139.09375 190.589844 139.058594 191.332031 138.984375 192.074219 C 138.914062 192.816406 138.804688 193.554688 138.660156 194.285156 C 138.515625 195.015625 138.335938 195.738281 138.121094 196.453125 C 137.90625 197.167969 137.65625 197.867188 137.371094 198.558594 C 137.089844 199.246094 136.769531 199.917969 136.421875 200.578125 C 136.074219 201.234375 135.691406 201.875 135.28125 202.492188 C 134.867188 203.113281 134.425781 203.710938 133.957031 204.289062 C 133.484375 204.863281 132.988281 205.417969 132.464844 205.945312 C 131.941406 206.472656 131.390625 206.972656 130.816406 207.445312 C 130.246094 207.917969 129.648438 208.359375 129.03125 208.773438 C 128.417969 209.191406 127.78125 209.574219 127.128906 209.925781 C 126.472656 210.277344 125.804688 210.59375 125.117188 210.878906 C 124.433594 211.164062 123.738281 211.414062 123.027344 211.632812 C 122.316406 211.847656 121.597656 212.03125 120.871094 212.175781 C 120.144531 212.320312 119.410156 212.429688 118.675781 212.503906 C 117.9375 212.574219 117.195312 212.613281 116.453125 212.613281 L 81.234375 212.613281 C 80.902344 212.613281 80.582031 212.546875 80.273438 212.417969 C 79.964844 212.292969 79.691406 212.109375 79.457031 211.871094 C 79.222656 211.632812 79.039062 211.359375 78.910156 211.050781 C 78.785156 210.742188 78.71875 210.417969 78.71875 210.082031 C 78.71875 191.039062 66.730469 187.3125 46.015625 187.3125 C 29.589844 187.3125 25.890625 194.808594 25.890625 197.433594 C 25.890625 197.769531 25.828125 198.089844 25.699219 198.402344 C 25.574219 198.710938 25.390625 198.984375 25.15625 199.222656 C 24.917969 199.460938 24.648438 199.640625 24.339844 199.769531 C 24.03125 199.898438 23.710938 199.964844 23.375 199.964844 C 23.042969 199.964844 22.722656 199.898438 22.414062 199.769531 C 22.105469 199.640625 21.832031 199.460938 21.597656 199.222656 C 21.363281 198.984375 21.179688 198.710938 21.050781 198.402344 C 20.925781 198.089844 20.859375 197.769531 20.859375 197.433594 C 20.859375 193.214844 25.390625 182.253906 46.015625 182.253906 C 63.65625 182.253906 82.433594 184.277344 83.6875 207.554688 L 116.453125 207.554688 C 117.03125 207.554688 117.605469 207.523438 118.179688 207.46875 C 118.753906 207.410156 119.324219 207.324219 119.890625 207.210938 C 120.457031 207.097656 121.015625 206.957031 121.566406 206.789062 C 122.117188 206.621094 122.660156 206.425781 123.195312 206.203125 C 123.726562 205.984375 124.246094 205.734375 124.753906 205.460938 C 125.265625 205.1875 125.757812 204.890625 126.238281 204.566406 C 126.71875 204.246094 127.179688 203.902344 127.625 203.53125 C 128.070312 203.164062 128.5 202.777344 128.90625 202.367188 C 129.3125 201.957031 129.699219 201.527344 130.066406 201.078125 C 130.433594 200.628906 130.777344 200.164062 131.097656 199.683594 C 131.417969 199.199219 131.714844 198.703125 131.984375 198.191406 C 132.257812 197.679688 132.503906 197.15625 132.722656 196.621094 C 132.945312 196.085938 133.136719 195.539062 133.304688 194.984375 C 133.472656 194.429688 133.613281 193.867188 133.726562 193.296875 C 133.839844 192.730469 133.921875 192.15625 133.980469 191.578125 C 134.035156 191.003906 134.0625 190.425781 134.0625 189.84375 L 134.0625 174.664062 C 134.0625 174.085938 134.035156 173.507812 133.980469 172.929688 C 133.921875 172.351562 133.839844 171.777344 133.726562 171.210938 C 133.613281 170.640625 133.472656 170.078125 133.304688 169.523438 C 133.136719 168.96875 132.945312 168.425781 132.722656 167.886719 C 132.503906 167.351562 132.257812 166.828125 131.984375 166.316406 C 131.714844 165.804688 131.417969 165.308594 131.097656 164.828125 C 130.777344 164.34375 130.433594 163.878906 130.066406 163.429688 C 129.699219 162.980469 129.3125 162.554688 128.90625 162.144531 C 128.5 161.734375 128.070312 161.34375 127.625 160.976562 C 127.179688 160.609375 126.71875 160.261719 126.238281 159.941406 C 125.757812 159.617188 125.265625 159.320312 124.753906 159.046875 C 124.246094 158.773438 123.726562 158.527344 123.195312 158.304688 C 122.660156 158.082031 122.117188 157.886719 121.566406 157.71875 C 121.015625 157.550781 120.457031 157.410156 119.890625 157.296875 C 119.324219 157.183594 118.753906 157.097656 118.179688 157.042969 C 117.605469 156.984375 117.03125 156.957031 116.453125 156.957031 L 111.421875 156.957031 C 111.089844 156.957031 110.769531 156.890625 110.460938 156.761719 C 110.152344 156.636719 109.878906 156.453125 109.644531 156.214844 C 109.410156 155.976562 109.226562 155.703125 109.097656 155.394531 C 108.972656 155.085938 108.90625 154.761719 108.90625 154.425781 C 108.90625 154.089844 108.972656 153.769531 109.097656 153.457031 C 109.226562 153.148438 109.410156 152.875 109.644531 152.636719 C 109.878906 152.398438 110.152344 152.21875 110.460938 152.089844 C 110.769531 151.960938 111.089844 151.898438 111.421875 151.898438 L 116.453125 151.898438 C 117.195312 151.898438 117.9375 151.933594 118.675781 152.007812 C 119.410156 152.078125 120.144531 152.1875 120.871094 152.335938 C 121.597656 152.480469 122.316406 152.660156 123.027344 152.875 C 123.738281 153.09375 124.433594 153.34375 125.117188 153.628906 C 125.804688 153.914062 126.472656 154.234375 127.128906 154.585938 C 127.78125 154.9375 128.417969 155.320312 129.03125 155.734375 C 129.648438 156.148438 130.246094 156.589844 130.816406 157.066406 C 131.390625 157.539062 131.941406 158.039062 132.464844 158.566406 C 132.988281 159.09375 133.484375 159.644531 133.957031 160.222656 C 134.425781 160.796875 134.867188 161.394531 135.28125 162.015625 C 135.691406 162.636719 136.074219 163.273438 136.421875 163.933594 C 136.769531 164.589844 137.089844 165.261719 137.371094 165.953125 C 137.65625 166.640625 137.90625 167.34375 138.121094 168.054688 C 138.335938 168.769531 138.515625 169.492188 138.660156 170.222656 C 138.804688 170.953125 138.914062 171.691406 138.984375 172.433594 C 139.058594 173.175781 139.09375 173.917969 139.09375 174.664062 Z M 139.09375 174.664062 " fill-opacity="1" fill-rule="nonzero"/></g><g clip-path="url(#id4)"><path fill="rgb(0%, 76.078796%, 79.60968%)" d="M 96.328125 136.71875 C 96.90625 136.71875 97.480469 136.746094 98.054688 136.804688 C 98.628906 136.859375 99.199219 136.945312 99.765625 137.058594 C 100.332031 137.171875 100.890625 137.3125 101.441406 137.480469 C 101.992188 137.648438 102.535156 137.84375 103.070312 138.066406 C 103.601562 138.289062 104.121094 138.535156 104.628906 138.808594 C 105.140625 139.082031 105.632812 139.378906 106.113281 139.703125 C 106.59375 140.023438 107.054688 140.371094 107.5 140.738281 C 107.945312 141.105469 108.375 141.496094 108.78125 141.90625 C 109.1875 142.316406 109.574219 142.742188 109.941406 143.191406 C 110.308594 143.640625 110.652344 144.105469 110.972656 144.585938 C 111.292969 145.070312 111.585938 145.566406 111.859375 146.078125 C 112.132812 146.589844 112.378906 147.113281 112.597656 147.648438 C 112.820312 148.183594 113.011719 148.730469 113.179688 149.285156 C 113.347656 149.839844 113.488281 150.402344 113.601562 150.972656 C 113.714844 151.539062 113.796875 152.113281 113.855469 152.691406 C 113.910156 153.269531 113.9375 153.847656 113.9375 154.425781 C 113.9375 155.007812 113.910156 155.585938 113.855469 156.164062 C 113.796875 156.738281 113.714844 157.3125 113.601562 157.882812 C 113.488281 158.449219 113.347656 159.011719 113.179688 159.566406 C 113.011719 160.121094 112.820312 160.667969 112.597656 161.203125 C 112.378906 161.738281 112.132812 162.261719 111.859375 162.773438 C 111.589844 163.285156 111.292969 163.78125 110.972656 164.265625 C 110.652344 164.746094 110.308594 165.210938 109.941406 165.660156 C 109.574219 166.109375 109.1875 166.539062 108.78125 166.949219 C 108.375 167.359375 107.945312 167.746094 107.5 168.117188 C 107.054688 168.484375 106.59375 168.828125 106.113281 169.152344 C 105.632812 169.472656 105.140625 169.769531 104.628906 170.042969 C 104.121094 170.316406 103.601562 170.566406 103.070312 170.789062 C 102.535156 171.007812 101.992188 171.203125 101.441406 171.371094 C 100.890625 171.539062 100.332031 171.683594 99.765625 171.792969 C 99.199219 171.90625 98.628906 171.992188 98.054688 172.050781 C 97.480469 172.105469 96.90625 172.136719 96.328125 172.136719 C 95.753906 172.136719 95.175781 172.105469 94.605469 172.050781 C 94.03125 171.992188 93.460938 171.90625 92.894531 171.792969 C 92.328125 171.683594 91.769531 171.539062 91.21875 171.371094 C 90.667969 171.203125 90.125 171.007812 89.589844 170.789062 C 89.058594 170.566406 88.539062 170.316406 88.027344 170.042969 C 87.519531 169.769531 87.027344 169.472656 86.546875 169.152344 C 86.066406 168.828125 85.605469 168.484375 85.160156 168.117188 C 84.710938 167.746094 84.285156 167.359375 83.878906 166.949219 C 83.46875 166.539062 83.082031 166.109375 82.71875 165.660156 C 82.351562 165.210938 82.007812 164.746094 81.6875 164.265625 C 81.367188 163.78125 81.070312 163.285156 80.800781 162.773438 C 80.527344 162.261719 80.28125 161.738281 80.0625 161.203125 C 79.839844 160.667969 79.644531 160.121094 79.480469 159.566406 C 79.3125 159.011719 79.171875 158.449219 79.058594 157.882812 C 78.945312 157.3125 78.863281 156.738281 78.804688 156.164062 C 78.75 155.585938 78.71875 155.007812 78.71875 154.425781 C 78.71875 153.847656 78.75 153.269531 78.804688 152.691406 C 78.863281 152.113281 78.945312 151.539062 79.058594 150.972656 C 79.171875 150.402344 79.3125 149.839844 79.480469 149.285156 C 79.644531 148.730469 79.839844 148.183594 80.0625 147.648438 C 80.28125 147.113281 80.527344 146.589844 80.800781 146.078125 C 81.070312 145.566406 81.367188 145.070312 81.6875 144.585938 C 82.007812 144.105469 82.351562 143.640625 82.71875 143.191406 C 83.082031 142.742188 83.46875 142.316406 83.878906 141.90625 C 84.285156 141.496094 84.710938 141.105469 85.160156 140.738281 C 85.605469 140.371094 86.066406 140.023438 86.546875 139.703125 C 87.027344 139.378906 87.519531 139.082031 88.027344 138.808594 C 88.539062 138.535156 89.058594 138.289062 89.589844 138.066406 C 90.125 137.84375 90.667969 137.648438 91.21875 137.480469 C 91.769531 137.3125 92.328125 137.171875 92.894531 137.058594 C 93.460938 136.945312 94.03125 136.859375 94.605469 136.804688 C 95.175781 136.746094 95.753906 136.71875 96.328125 136.71875 Z M 96.328125 136.71875 " fill-opacity="1" fill-rule="nonzero"/></g><path fill="rgb(36.079407%, 88.238525%, 90.19928%)" d="M 96.328125 146.835938 C 96.824219 146.835938 97.316406 146.886719 97.800781 146.984375 C 98.289062 147.078125 98.761719 147.222656 99.21875 147.414062 C 99.675781 147.605469 100.109375 147.839844 100.523438 148.117188 C 100.933594 148.394531 101.316406 148.707031 101.667969 149.058594 C 102.015625 149.414062 102.328125 149.796875 102.605469 150.210938 C 102.878906 150.625 103.113281 151.0625 103.300781 151.523438 C 103.492188 151.980469 103.636719 152.457031 103.730469 152.945312 C 103.828125 153.433594 103.875 153.929688 103.875 154.425781 C 103.875 154.925781 103.828125 155.417969 103.730469 155.90625 C 103.636719 156.394531 103.492188 156.871094 103.300781 157.332031 C 103.113281 157.792969 102.878906 158.230469 102.605469 158.644531 C 102.328125 159.058594 102.015625 159.441406 101.667969 159.792969 C 101.316406 160.144531 100.933594 160.460938 100.523438 160.738281 C 100.109375 161.011719 99.675781 161.246094 99.21875 161.4375 C 98.761719 161.628906 98.289062 161.773438 97.800781 161.871094 C 97.316406 161.96875 96.824219 162.015625 96.328125 162.015625 C 95.835938 162.015625 95.34375 161.96875 94.855469 161.871094 C 94.371094 161.773438 93.898438 161.628906 93.441406 161.4375 C 92.984375 161.246094 92.550781 161.011719 92.136719 160.738281 C 91.726562 160.460938 91.34375 160.144531 90.992188 159.792969 C 90.644531 159.441406 90.328125 159.058594 90.054688 158.644531 C 89.78125 158.230469 89.546875 157.792969 89.355469 157.332031 C 89.167969 156.871094 89.023438 156.394531 88.929688 155.90625 C 88.832031 155.417969 88.78125 154.925781 88.78125 154.425781 C 88.78125 153.929688 88.832031 153.433594 88.929688 152.945312 C 89.023438 152.457031 89.167969 151.980469 89.355469 151.523438 C 89.546875 151.0625 89.78125 150.625 90.054688 150.210938 C 90.328125 149.796875 90.644531 149.414062 90.992188 149.058594 C 91.34375 148.707031 91.726562 148.394531 92.136719 148.117188 C 92.550781 147.839844 92.984375 147.605469 93.441406 147.414062 C 93.898438 147.222656 94.371094 147.078125 94.855469 146.984375 C 95.34375 146.886719 95.835938 146.835938 96.328125 146.835938 Z M 96.328125 146.835938 " fill-opacity="1" fill-rule="nonzero"/><g clip-path="url(#id5)"><path fill="rgb(21.958923%, 71.369934%, 100%)" d="M 28.40625 222.730469 C 28.40625 223.0625 28.375 223.394531 28.3125 223.71875 C 28.246094 224.042969 28.152344 224.359375 28.023438 224.667969 C 27.898438 224.976562 27.742188 225.265625 27.558594 225.542969 C 27.375 225.820312 27.167969 226.074219 26.933594 226.308594 C 26.699219 226.542969 26.445312 226.753906 26.171875 226.9375 C 25.898438 227.125 25.605469 227.277344 25.300781 227.40625 C 24.996094 227.535156 24.683594 227.628906 24.359375 227.695312 C 24.035156 227.757812 23.707031 227.792969 23.375 227.792969 C 23.046875 227.792969 22.71875 227.757812 22.394531 227.695312 C 22.070312 227.628906 21.757812 227.535156 21.453125 227.40625 C 21.144531 227.277344 20.855469 227.125 20.582031 226.9375 C 20.308594 226.753906 20.050781 226.542969 19.820312 226.308594 C 19.585938 226.074219 19.375 225.820312 19.191406 225.542969 C 19.007812 225.265625 18.855469 224.976562 18.726562 224.667969 C 18.601562 224.359375 18.507812 224.042969 18.441406 223.71875 C 18.378906 223.394531 18.34375 223.0625 18.34375 222.730469 C 18.34375 222.398438 18.378906 222.070312 18.441406 221.746094 C 18.507812 221.417969 18.601562 221.101562 18.726562 220.796875 C 18.855469 220.488281 19.007812 220.195312 19.191406 219.921875 C 19.375 219.644531 19.585938 219.390625 19.820312 219.152344 C 20.050781 218.917969 20.308594 218.710938 20.582031 218.523438 C 20.855469 218.339844 21.144531 218.183594 21.453125 218.058594 C 21.757812 217.929688 22.070312 217.835938 22.394531 217.769531 C 22.71875 217.703125 23.046875 217.671875 23.375 217.671875 C 23.707031 217.671875 24.035156 217.703125 24.359375 217.769531 C 24.683594 217.835938 24.996094 217.929688 25.300781 218.058594 C 25.605469 218.183594 25.898438 218.339844 26.171875 218.523438 C 26.445312 218.710938 26.699219 218.917969 26.933594 219.152344 C 27.167969 219.390625 27.375 219.644531 27.558594 219.921875 C 27.742188 220.195312 27.898438 220.488281 28.023438 220.796875 C 28.152344 221.101562 28.246094 221.417969 28.3125 221.746094 C 28.375 222.070312 28.40625 222.398438 28.40625 222.730469 Z M 28.40625 222.730469 " fill-opacity="1" fill-rule="nonzero"/></g><g clip-path="url(#id6)"><path fill="rgb(21.958923%, 71.369934%, 100%)" d="M 28.40625 197.433594 C 28.40625 197.765625 28.375 198.09375 28.3125 198.421875 C 28.246094 198.746094 28.152344 199.0625 28.023438 199.371094 C 27.898438 199.675781 27.742188 199.96875 27.558594 200.246094 C 27.375 200.519531 27.167969 200.777344 26.933594 201.011719 C 26.699219 201.246094 26.445312 201.457031 26.171875 201.640625 C 25.898438 201.824219 25.605469 201.980469 25.300781 202.109375 C 24.996094 202.234375 24.683594 202.332031 24.359375 202.394531 C 24.035156 202.460938 23.707031 202.492188 23.375 202.492188 C 23.046875 202.492188 22.71875 202.460938 22.394531 202.394531 C 22.070312 202.332031 21.757812 202.234375 21.453125 202.109375 C 21.144531 201.980469 20.855469 201.824219 20.582031 201.640625 C 20.308594 201.457031 20.050781 201.246094 19.820312 201.011719 C 19.585938 200.777344 19.375 200.519531 19.191406 200.246094 C 19.007812 199.96875 18.855469 199.675781 18.726562 199.371094 C 18.601562 199.0625 18.507812 198.746094 18.441406 198.421875 C 18.378906 198.09375 18.34375 197.765625 18.34375 197.433594 C 18.34375 197.101562 18.378906 196.773438 18.441406 196.445312 C 18.507812 196.121094 18.601562 195.804688 18.726562 195.496094 C 18.855469 195.191406 19.007812 194.898438 19.191406 194.621094 C 19.375 194.347656 19.585938 194.089844 19.820312 193.855469 C 20.050781 193.621094 20.308594 193.410156 20.582031 193.226562 C 20.855469 193.042969 21.144531 192.886719 21.453125 192.757812 C 21.757812 192.632812 22.070312 192.535156 22.394531 192.472656 C 22.71875 192.40625 23.046875 192.375 23.375 192.375 C 23.707031 192.375 24.035156 192.40625 24.359375 192.472656 C 24.683594 192.535156 24.996094 192.632812 25.300781 192.757812 C 25.605469 192.886719 25.898438 193.042969 26.171875 193.226562 C 26.445312 193.410156 26.699219 193.621094 26.933594 193.855469 C 27.167969 194.089844 27.375 194.347656 27.558594 194.621094 C 27.742188 194.898438 27.898438 195.191406 28.023438 195.496094 C 28.152344 195.804688 28.246094 196.121094 28.3125 196.445312 C 28.375 196.773438 28.40625 197.101562 28.40625 197.433594 Z M 28.40625 197.433594 " fill-opacity="1" fill-rule="nonzero"/></g><path stroke-linecap="round" transform="matrix(-0.000000000000000602, -3.744428, 3.75, -0.000000000000000603, 161.363548, 282.140607)" fill="none" stroke-linejoin="miter" d="M 0.499696 -0.000071001 L 49.977385 -0.000071001 " stroke="rgb(0%, 0%, 0%)" stroke-width="1" stroke-opacity="1" stroke-miterlimit="4"/><g fill="rgb(0%, 0%, 0%)" fill-opacity="1"><g transform="translate(187.499992, 148.449989)"><g><path d="M 3.191406 0 L 11.578125 0 C 21.039062 0 30.277344 -6.53125 30.277344 -14.730469 C 30.277344 -22.152344 22.707031 -29.460938 13.246094 -29.460938 L 3.191406 -29.460938 Z M 11.09375 -0.296875 C 8.90625 -0.296875 8.199219 -0.777344 8.199219 -1.261719 L 8.199219 -29.164062 L 12.023438 -29.164062 C 19.109375 -29.164062 24.785156 -22.003906 24.785156 -14.730469 C 24.785156 -6.714844 17.996094 -0.296875 11.09375 -0.296875 Z M 11.09375 -0.296875 "/></g></g></g><g fill="rgb(0%, 0%, 0%)" fill-opacity="1"><g transform="translate(219.815611, 148.449989)"><g><path d="M 16.289062 0.371094 C 24.304688 0.371094 32.167969 -7.085938 32.167969 -14.730469 C 32.167969 -22.375 24.488281 -29.832031 16.660156 -29.832031 C 8.980469 -29.832031 1.484375 -22.375 1.484375 -14.730469 C 1.484375 -7.085938 8.832031 0.371094 16.289062 0.371094 Z M 16.363281 0 C 11.613281 0 6.9375 -7.308594 6.9375 -14.730469 C 6.9375 -22.152344 11.726562 -29.460938 16.585938 -29.460938 C 21.707031 -29.460938 26.714844 -22.152344 26.714844 -14.730469 C 26.714844 -7.308594 21.59375 0 16.363281 0 Z M 16.363281 0 "/></g></g></g><g fill="rgb(0%, 0%, 0%)" fill-opacity="1"><g transform="translate(254.023418, 148.449989)"><g><path d="M 16.585938 0.296875 C 20.445312 0.296875 23.894531 -1 26.195312 -2.707031 C 27.125 -3.265625 27.976562 -3.300781 28.050781 -2.707031 L 28.089844 -2.1875 L 28.238281 -2.113281 L 28.238281 -6.753906 L 27.753906 -6.753906 C 27.679688 -6.679688 27.605469 -6.53125 27.53125 -6.457031 C 26.566406 -5.230469 24.972656 -3.523438 24.082031 -2.820312 C 21.964844 -1.222656 19.292969 -0.0351562 16.660156 -0.0351562 C 11.761719 -0.0351562 6.976562 -7.347656 6.976562 -14.769531 C 6.976562 -22.1875 11.984375 -29.5 17.105469 -29.5 C 19.367188 -29.5 21.667969 -28.421875 23.671875 -26.9375 C 24.785156 -26.085938 26.714844 -24.117188 27.53125 -22.96875 C 27.570312 -22.894531 27.71875 -22.746094 27.753906 -22.671875 L 28.238281 -22.671875 L 28.238281 -27.308594 L 28.050781 -27.308594 L 28.015625 -26.789062 C 27.941406 -26.234375 27.050781 -26.308594 26.121094 -26.863281 C 23.894531 -28.570312 20.777344 -29.90625 17.03125 -29.90625 C 9.203125 -29.90625 1.519531 -22.449219 1.519531 -14.804688 C 1.519531 -7.160156 8.980469 0.296875 16.585938 0.296875 Z M 16.585938 0.296875 "/></g></g></g><g fill="rgb(0%, 0%, 0%)" fill-opacity="1"><g transform="translate(187.511711, 200.949985)"><g><path d="M 4.527344 0 L 9.535156 0 L 9.535156 -15.027344 L 22.152344 -15.027344 L 22.152344 0 L 27.160156 0 L 27.160156 -29.460938 L 22.152344 -29.460938 L 22.152344 -15.433594 L 9.535156 -15.433594 L 9.535156 -29.460938 L 4.527344 -29.460938 Z M 4.527344 0 "/></g></g></g><g fill="rgb(0%, 0%, 0%)" fill-opacity="1"><g transform="translate(218.157751, 200.949985)"><g><path d="M 16.289062 0.371094 C 24.304688 0.371094 32.167969 -7.085938 32.167969 -14.730469 C 32.167969 -22.375 24.488281 -29.832031 16.660156 -29.832031 C 8.980469 -29.832031 1.484375 -22.375 1.484375 -14.730469 C 1.484375 -7.085938 8.832031 0.371094 16.289062 0.371094 Z M 16.363281 0 C 11.613281 0 6.9375 -7.308594 6.9375 -14.730469 C 6.9375 -22.152344 11.726562 -29.460938 16.585938 -29.460938 C 21.707031 -29.460938 26.714844 -22.152344 26.714844 -14.730469 C 26.714844 -7.308594 21.59375 0 16.363281 0 Z M 16.363281 0 "/></g></g></g><g fill="rgb(0%, 0%, 0%)" fill-opacity="1"><g transform="translate(252.365558, 200.949985)"><g><path d="M 10.6875 0.371094 C 14.101562 0.371094 18.847656 -2.558594 20.222656 -5.527344 L 20.222656 0 L 22.746094 0 L 22.746094 0.0351562 C 23.375 -0.109375 24.636719 -0.445312 25.269531 -0.628906 L 25.269531 -29.460938 L 20.222656 -29.460938 L 20.222656 -7.792969 C 19.070312 -5.304688 15.324219 -2.855469 12.691406 -2.855469 C 9.757812 -2.855469 6.902344 -5.640625 6.902344 -8.460938 L 6.902344 -29.460938 L 1.890625 -29.460938 L 1.890625 -8.460938 C 1.890625 -4.007812 6.234375 0.371094 10.6875 0.371094 Z M 10.6875 0.371094 "/></g></g></g><g fill="rgb(0%, 0%, 0%)" fill-opacity="1"><g transform="translate(280.006357, 200.949985)"><g><path d="M 11.09375 0.371094 C 15.65625 0.371094 20.148438 -3.785156 20.148438 -8.050781 C 20.148438 -11.355469 16.808594 -15.804688 12.617188 -17.328125 C 8.980469 -18.664062 6.085938 -21.632812 6.085938 -23.636719 C 6.085938 -26.566406 8.125 -29.460938 10.242188 -29.460938 C 11.503906 -29.460938 13.023438 -28.832031 14.359375 -27.902344 C 14.769531 -27.496094 16.4375 -25.640625 18.03125 -23.820312 L 18.292969 -23.523438 L 18.773438 -23.523438 L 18.773438 -27.570312 L 18.589844 -27.570312 L 18.550781 -27.160156 C 18.515625 -26.753906 17.773438 -26.863281 16.992188 -27.382812 C 15.175781 -28.792969 12.46875 -29.867188 10.242188 -29.867188 C 6.160156 -29.867188 2.1875 -25.863281 2.1875 -21.742188 C 2.1875 -18.253906 5.492188 -13.65625 9.609375 -12.171875 C 13.246094 -10.835938 16.140625 -8.238281 16.140625 -6.640625 C 16.140625 -3.375 13.65625 -0.148438 11.09375 -0.148438 C 9.683594 -0.148438 7.792969 -1.1875 6.160156 -2.671875 C 7.125 -1.816406 5.34375 -4.082031 2.523438 -7.308594 L 2.261719 -7.605469 L 1.742188 -7.53125 L 1.742188 -2.113281 L 1.929688 -2.113281 L 1.964844 -2.855469 C 2.003906 -3.671875 3.042969 -3.597656 4.082031 -2.78125 C 6.121094 -0.964844 8.90625 0.371094 11.09375 0.371094 Z M 11.09375 0.371094 "/></g></g></g><g fill="rgb(0%, 0%, 0%)" fill-opacity="1"><g transform="translate(301.599572, 200.949985)"><g><path d="M 3.191406 0 L 21.632812 0 L 21.667969 -0.148438 C 21.707031 -0.148438 22.152344 -2.929688 22.1875 -3.117188 L 21.855469 -3.117188 L 21.667969 -2.671875 C 21.1875 -1.484375 18.847656 -0.332031 16.882812 -0.332031 L 9.460938 -0.332031 C 8.496094 -0.332031 8.199219 -0.777344 8.199219 -1.261719 L 8.199219 -15.136719 L 14.582031 -15.136719 C 16.066406 -15.136719 17.773438 -13.804688 18.03125 -12.46875 L 18.144531 -11.984375 L 18.476562 -11.984375 L 18.476562 -18.625 L 18.144531 -18.625 L 18.03125 -18.144531 C 17.773438 -16.808594 16.066406 -15.472656 14.582031 -15.472656 L 8.199219 -15.472656 L 8.199219 -29.128906 L 16.84375 -29.128906 C 18.328125 -29.128906 20.183594 -27.792969 20.59375 -26.457031 L 20.777344 -25.972656 L 21.113281 -25.972656 L 20.703125 -29.3125 L 20.742188 -29.3125 L 20.703125 -29.460938 L 3.191406 -29.460938 Z M 3.191406 0 "/></g></g></g><g fill="rgb(0%, 0%, 0%)" fill-opacity="1"><g transform="translate(187.499992, 253.449982)"><g><path d="M 16.957031 0.332031 C 21.890625 0.332031 27.308594 -1 30.203125 -2.335938 L 30.089844 -2.523438 C 29.5 -2.261719 28.644531 -2.003906 27.605469 -1.742188 C 27.644531 -3.671875 27.644531 -9.757812 27.644531 -12.800781 L 22.597656 -12.800781 L 22.597656 -9.535156 C 22.632812 -9.535156 22.632812 -5.566406 22.632812 -5.082031 C 22.335938 -2.746094 20.109375 -0.628906 17.808594 -0.628906 C 12.394531 -0.628906 7.085938 -7.605469 7.085938 -14.730469 C 7.085938 -22.152344 12.097656 -29.460938 17.214844 -29.460938 C 19.480469 -29.460938 21.78125 -28.386719 23.785156 -26.902344 C 24.898438 -26.046875 26.828125 -24.082031 27.644531 -22.929688 C 27.679688 -22.855469 27.828125 -22.707031 27.867188 -22.632812 L 28.238281 -22.632812 L 28.238281 -27.273438 L 28.050781 -27.273438 L 28.015625 -26.753906 C 27.941406 -26.195312 27.050781 -26.269531 26.121094 -26.828125 C 23.894531 -28.535156 20.777344 -29.867188 17.03125 -29.867188 C 9.203125 -29.867188 1.519531 -22.410156 1.519531 -14.769531 C 1.519531 -7.125 9.164062 0.332031 16.957031 0.332031 Z M 16.957031 0.332031 "/></g></g></g><g fill="rgb(0%, 0%, 0%)" fill-opacity="1"><g transform="translate(218.479948, 253.449982)"><g><path d="M 11.09375 0.371094 C 15.65625 0.371094 20.148438 -3.785156 20.148438 -8.050781 C 20.148438 -11.355469 16.808594 -15.804688 12.617188 -17.328125 C 8.980469 -18.664062 6.085938 -21.632812 6.085938 -23.636719 C 6.085938 -26.566406 8.125 -29.460938 10.242188 -29.460938 C 11.503906 -29.460938 13.023438 -28.832031 14.359375 -27.902344 C 14.769531 -27.496094 16.4375 -25.640625 18.03125 -23.820312 L 18.292969 -23.523438 L 18.773438 -23.523438 L 18.773438 -27.570312 L 18.589844 -27.570312 L 18.550781 -27.160156 C 18.515625 -26.753906 17.773438 -26.863281 16.992188 -27.382812 C 15.175781 -28.792969 12.46875 -29.867188 10.242188 -29.867188 C 6.160156 -29.867188 2.1875 -25.863281 2.1875 -21.742188 C 2.1875 -18.253906 5.492188 -13.65625 9.609375 -12.171875 C 13.246094 -10.835938 16.140625 -8.238281 16.140625 -6.640625 C 16.140625 -3.375 13.65625 -0.148438 11.09375 -0.148438 C 9.683594 -0.148438 7.792969 -1.1875 6.160156 -2.671875 C 7.125 -1.816406 5.34375 -4.082031 2.523438 -7.308594 L 2.261719 -7.605469 L 1.742188 -7.53125 L 1.742188 -2.113281 L 1.929688 -2.113281 L 1.964844 -2.855469 C 2.003906 -3.671875 3.042969 -3.597656 4.082031 -2.78125 C 6.121094 -0.964844 8.90625 0.371094 11.09375 0.371094 Z M 11.09375 0.371094 "/></g></g></g><g fill="rgb(0%, 0%, 0%)" fill-opacity="1"><g transform="translate(240.073162, 253.449982)"><g><path d="M 1.59375 0 L 5.9375 0 L 5.9375 -0.109375 L 5.714844 -0.109375 C 5.195312 -0.109375 4.675781 -1.039062 4.675781 -1.964844 L 4.972656 -24.488281 C 8.347656 -16.324219 11.6875 -8.164062 15.0625 0 L 16.324219 0 L 16.363281 -0.183594 L 24.859375 -24.75 L 25.378906 -1.742188 C 25.34375 -0.890625 24.859375 -0.109375 24.339844 -0.109375 L 24.117188 -0.109375 L 24.082031 0 L 31.722656 0 L 31.722656 -0.109375 C 30.980469 -0.109375 30.5 -0.742188 30.351562 -1.742188 C 30.089844 -10.316406 29.792969 -18.921875 29.574219 -27.496094 C 29.535156 -28.421875 30.054688 -29.351562 30.574219 -29.351562 L 30.796875 -29.351562 L 30.796875 -29.460938 L 24.710938 -29.460938 L 17.140625 -6.417969 L 8.90625 -29.460938 L 1.667969 -29.460938 L 1.667969 -29.351562 C 2.449219 -29.351562 3.300781 -28.535156 3.710938 -27.53125 L 2.96875 -1.707031 C 2.820312 -0.703125 2.335938 -0.109375 1.59375 -0.109375 Z M 1.59375 0 "/></g></g></g><g fill="rgb(0%, 0%, 0%)" fill-opacity="1"><g transform="translate(28.156244, 334.049978)"><g><path d="M 7.265625 -11.703125 C 5.859375 -11.703125 4.742188 -11.226562 3.921875 -10.28125 C 3.109375 -9.34375 2.703125 -8.054688 2.703125 -6.421875 C 2.703125 -4.742188 3.09375 -3.445312 3.875 -2.53125 C 4.664062 -1.613281 5.789062 -1.15625 7.25 -1.15625 C 8.144531 -1.15625 9.164062 -1.316406 10.3125 -1.640625 L 10.3125 -0.328125 C 9.425781 0.00390625 8.328125 0.171875 7.015625 0.171875 C 5.128906 0.171875 3.671875 -0.398438 2.640625 -1.546875 C 1.609375 -2.691406 1.09375 -4.320312 1.09375 -6.4375 C 1.09375 -7.757812 1.335938 -8.921875 1.828125 -9.921875 C 2.328125 -10.921875 3.046875 -11.6875 3.984375 -12.21875 C 4.921875 -12.757812 6.019531 -13.03125 7.28125 -13.03125 C 8.632812 -13.03125 9.8125 -12.785156 10.8125 -12.296875 L 10.1875 -11.015625 C 9.21875 -11.472656 8.242188 -11.703125 7.265625 -11.703125 Z M 7.265625 -11.703125 "/></g></g><g transform="translate(39.511712, 334.049978)"><g><path d="M 7.46875 0 L 7.1875 -1.375 L 7.109375 -1.375 C 6.628906 -0.769531 6.148438 -0.359375 5.671875 -0.140625 C 5.191406 0.0664062 4.597656 0.171875 3.890625 0.171875 C 2.929688 0.171875 2.179688 -0.0703125 1.640625 -0.5625 C 1.097656 -1.050781 0.828125 -1.75 0.828125 -2.65625 C 0.828125 -4.601562 2.382812 -5.625 5.5 -5.71875 L 7.125 -5.78125 L 7.125 -6.375 C 7.125 -7.125 6.960938 -7.679688 6.640625 -8.046875 C 6.316406 -8.410156 5.796875 -8.59375 5.078125 -8.59375 C 4.273438 -8.59375 3.367188 -8.34375 2.359375 -7.84375 L 1.90625 -8.96875 C 2.382812 -9.226562 2.90625 -9.429688 3.46875 -9.578125 C 4.03125 -9.722656 4.597656 -9.796875 5.171875 -9.796875 C 6.316406 -9.796875 7.164062 -9.539062 7.71875 -9.03125 C 8.269531 -8.519531 8.546875 -7.703125 8.546875 -6.578125 L 8.546875 0 Z M 4.171875 -1.03125 C 5.078125 -1.03125 5.789062 -1.273438 6.3125 -1.765625 C 6.832031 -2.265625 7.09375 -2.96875 7.09375 -3.875 L 7.09375 -4.734375 L 5.640625 -4.671875 C 4.472656 -4.628906 3.632812 -4.445312 3.125 -4.125 C 2.613281 -3.8125 2.359375 -3.316406 2.359375 -2.640625 C 2.359375 -2.117188 2.515625 -1.71875 2.828125 -1.4375 C 3.148438 -1.164062 3.597656 -1.03125 4.171875 -1.03125 Z M 4.171875 -1.03125 "/></g></g><g transform="translate(49.522454, 334.049978)"><g><path d="M 6.03125 -9.796875 C 7.289062 -9.796875 8.269531 -9.363281 8.96875 -8.5 C 9.675781 -7.632812 10.03125 -6.410156 10.03125 -4.828125 C 10.03125 -3.242188 9.675781 -2.015625 8.96875 -1.140625 C 8.257812 -0.265625 7.28125 0.171875 6.03125 0.171875 C 5.40625 0.171875 4.832031 0.0546875 4.3125 -0.171875 C 3.789062 -0.398438 3.351562 -0.753906 3 -1.234375 L 2.90625 -1.234375 L 2.59375 0 L 1.546875 0 L 1.546875 -13.671875 L 3 -13.671875 L 3 -10.359375 C 3 -9.609375 2.976562 -8.9375 2.9375 -8.34375 L 3 -8.34375 C 3.6875 -9.3125 4.695312 -9.796875 6.03125 -9.796875 Z M 5.8125 -8.5625 C 4.820312 -8.5625 4.101562 -8.273438 3.65625 -7.703125 C 3.21875 -7.140625 3 -6.179688 3 -4.828125 C 3 -3.472656 3.222656 -2.503906 3.671875 -1.921875 C 4.128906 -1.335938 4.859375 -1.046875 5.859375 -1.046875 C 6.753906 -1.046875 7.421875 -1.367188 7.859375 -2.015625 C 8.296875 -2.671875 8.515625 -3.613281 8.515625 -4.84375 C 8.515625 -6.09375 8.296875 -7.023438 7.859375 -7.640625 C 7.421875 -8.253906 6.738281 -8.5625 5.8125 -8.5625 Z M 5.8125 -8.5625 "/></g></g><g transform="translate(60.552726, 334.049978)"><g><path d="M 3 0 L 1.546875 0 L 1.546875 -9.640625 L 3 -9.640625 Z M 1.421875 -12.25 C 1.421875 -12.582031 1.503906 -12.820312 1.671875 -12.96875 C 1.835938 -13.125 2.039062 -13.203125 2.28125 -13.203125 C 2.519531 -13.203125 2.722656 -13.125 2.890625 -12.96875 C 3.054688 -12.8125 3.140625 -12.570312 3.140625 -12.25 C 3.140625 -11.914062 3.054688 -11.664062 2.890625 -11.5 C 2.722656 -11.34375 2.519531 -11.265625 2.28125 -11.265625 C 2.039062 -11.265625 1.835938 -11.34375 1.671875 -11.5 C 1.503906 -11.664062 1.421875 -11.914062 1.421875 -12.25 Z M 1.421875 -12.25 "/></g></g><g transform="translate(65.105461, 334.049978)"><g><path d="M 8.140625 0 L 8.140625 -6.234375 C 8.140625 -7.015625 7.957031 -7.597656 7.59375 -7.984375 C 7.238281 -8.367188 6.679688 -8.5625 5.921875 -8.5625 C 4.910156 -8.5625 4.171875 -8.289062 3.703125 -7.75 C 3.234375 -7.207031 3 -6.304688 3 -5.046875 L 3 0 L 1.546875 0 L 1.546875 -9.640625 L 2.734375 -9.640625 L 2.96875 -8.3125 L 3.046875 -8.3125 C 3.335938 -8.789062 3.753906 -9.160156 4.296875 -9.421875 C 4.835938 -9.679688 5.4375 -9.8125 6.09375 -9.8125 C 7.257812 -9.8125 8.132812 -9.53125 8.71875 -8.96875 C 9.300781 -8.40625 9.59375 -7.507812 9.59375 -6.28125 L 9.59375 0 Z M 8.140625 0 "/></g></g><g transform="translate(76.153311, 334.049978)"><g><path d="M 5.609375 0.171875 C 4.191406 0.171875 3.070312 -0.257812 2.25 -1.125 C 1.425781 -1.988281 1.015625 -3.191406 1.015625 -4.734375 C 1.015625 -6.285156 1.394531 -7.519531 2.15625 -8.4375 C 2.925781 -9.351562 3.953125 -9.8125 5.234375 -9.8125 C 6.441406 -9.8125 7.394531 -9.410156 8.09375 -8.609375 C 8.800781 -7.816406 9.15625 -6.769531 9.15625 -5.46875 L 9.15625 -4.546875 L 2.515625 -4.546875 C 2.546875 -3.421875 2.832031 -2.5625 3.375 -1.96875 C 3.914062 -1.382812 4.679688 -1.09375 5.671875 -1.09375 C 6.703125 -1.09375 7.726562 -1.3125 8.75 -1.75 L 8.75 -0.453125 C 8.226562 -0.222656 7.738281 -0.0625 7.28125 0.03125 C 6.820312 0.125 6.265625 0.171875 5.609375 0.171875 Z M 5.21875 -8.59375 C 4.445312 -8.59375 3.832031 -8.335938 3.375 -7.828125 C 2.914062 -7.328125 2.644531 -6.628906 2.5625 -5.734375 L 7.59375 -5.734375 C 7.59375 -6.660156 7.382812 -7.367188 6.96875 -7.859375 C 6.5625 -8.347656 5.976562 -8.59375 5.21875 -8.59375 Z M 5.21875 -8.59375 "/></g></g><g transform="translate(86.251944, 334.049978)"><g><path d="M 4.65625 -1.03125 C 4.914062 -1.03125 5.164062 -1.046875 5.40625 -1.078125 C 5.644531 -1.117188 5.835938 -1.160156 5.984375 -1.203125 L 5.984375 -0.09375 C 5.816406 -0.0078125 5.578125 0.0507812 5.265625 0.09375 C 4.960938 0.144531 4.691406 0.171875 4.453125 0.171875 C 2.585938 0.171875 1.65625 -0.804688 1.65625 -2.765625 L 1.65625 -8.5 L 0.265625 -8.5 L 0.265625 -9.203125 L 1.65625 -9.8125 L 2.265625 -11.859375 L 3.109375 -11.859375 L 3.109375 -9.640625 L 5.90625 -9.640625 L 5.90625 -8.5 L 3.109375 -8.5 L 3.109375 -2.828125 C 3.109375 -2.242188 3.242188 -1.796875 3.515625 -1.484375 C 3.796875 -1.179688 4.175781 -1.03125 4.65625 -1.03125 Z M 4.65625 -1.03125 "/></g></g><g transform="translate(92.606435, 334.049978)"><g/></g><g transform="translate(97.282216, 334.049978)"><g><path d="M 13.828125 0 L 13.828125 -6.265625 C 13.828125 -7.035156 13.660156 -7.609375 13.328125 -7.984375 C 13.003906 -8.367188 12.492188 -8.5625 11.796875 -8.5625 C 10.890625 -8.5625 10.21875 -8.300781 9.78125 -7.78125 C 9.351562 -7.257812 9.140625 -6.457031 9.140625 -5.375 L 9.140625 0 L 7.6875 0 L 7.6875 -6.265625 C 7.6875 -7.035156 7.519531 -7.609375 7.1875 -7.984375 C 6.863281 -8.367188 6.351562 -8.5625 5.65625 -8.5625 C 4.738281 -8.5625 4.066406 -8.285156 3.640625 -7.734375 C 3.210938 -7.191406 3 -6.296875 3 -5.046875 L 3 0 L 1.546875 0 L 1.546875 -9.640625 L 2.734375 -9.640625 L 2.96875 -8.3125 L 3.046875 -8.3125 C 3.316406 -8.78125 3.703125 -9.144531 4.203125 -9.40625 C 4.703125 -9.675781 5.265625 -9.8125 5.890625 -9.8125 C 7.390625 -9.8125 8.375 -9.265625 8.84375 -8.171875 L 8.90625 -8.171875 C 9.195312 -8.679688 9.613281 -9.082031 10.15625 -9.375 C 10.707031 -9.664062 11.332031 -9.8125 12.03125 -9.8125 C 13.113281 -9.8125 13.925781 -9.53125 14.46875 -8.96875 C 15.007812 -8.40625 15.28125 -7.507812 15.28125 -6.28125 L 15.28125 0 Z M 13.828125 0 "/></g></g><g transform="translate(114.025379, 334.049978)"><g><path d="M 5.609375 0.171875 C 4.191406 0.171875 3.070312 -0.257812 2.25 -1.125 C 1.425781 -1.988281 1.015625 -3.191406 1.015625 -4.734375 C 1.015625 -6.285156 1.394531 -7.519531 2.15625 -8.4375 C 2.925781 -9.351562 3.953125 -9.8125 5.234375 -9.8125 C 6.441406 -9.8125 7.394531 -9.410156 8.09375 -8.609375 C 8.800781 -7.816406 9.15625 -6.769531 9.15625 -5.46875 L 9.15625 -4.546875 L 2.515625 -4.546875 C 2.546875 -3.421875 2.832031 -2.5625 3.375 -1.96875 C 3.914062 -1.382812 4.679688 -1.09375 5.671875 -1.09375 C 6.703125 -1.09375 7.726562 -1.3125 8.75 -1.75 L 8.75 -0.453125 C 8.226562 -0.222656 7.738281 -0.0625 7.28125 0.03125 C 6.820312 0.125 6.265625 0.171875 5.609375 0.171875 Z M 5.21875 -8.59375 C 4.445312 -8.59375 3.832031 -8.335938 3.375 -7.828125 C 2.914062 -7.328125 2.644531 -6.628906 2.5625 -5.734375 L 7.59375 -5.734375 C 7.59375 -6.660156 7.382812 -7.367188 6.96875 -7.859375 C 6.5625 -8.347656 5.976562 -8.59375 5.21875 -8.59375 Z M 5.21875 -8.59375 "/></g></g><g transform="translate(124.124012, 334.049978)"><g><path d="M 8.109375 -1.296875 L 8.03125 -1.296875 C 7.351562 -0.316406 6.34375 0.171875 5 0.171875 C 3.738281 0.171875 2.757812 -0.253906 2.0625 -1.109375 C 1.363281 -1.972656 1.015625 -3.203125 1.015625 -4.796875 C 1.015625 -6.378906 1.363281 -7.609375 2.0625 -8.484375 C 2.769531 -9.367188 3.75 -9.8125 5 -9.8125 C 6.3125 -9.8125 7.3125 -9.335938 8 -8.390625 L 8.125 -8.390625 L 8.0625 -9.078125 L 8.03125 -9.75 L 8.03125 -13.671875 L 9.484375 -13.671875 L 9.484375 0 L 8.296875 0 Z M 5.1875 -1.046875 C 6.1875 -1.046875 6.910156 -1.316406 7.359375 -1.859375 C 7.804688 -2.398438 8.03125 -3.273438 8.03125 -4.484375 L 8.03125 -4.796875 C 8.03125 -6.160156 7.800781 -7.132812 7.34375 -7.71875 C 6.882812 -8.300781 6.160156 -8.59375 5.171875 -8.59375 C 4.316406 -8.59375 3.660156 -8.257812 3.203125 -7.59375 C 2.742188 -6.925781 2.515625 -5.984375 2.515625 -4.765625 C 2.515625 -3.535156 2.738281 -2.609375 3.1875 -1.984375 C 3.644531 -1.359375 4.3125 -1.046875 5.1875 -1.046875 Z M 5.1875 -1.046875 "/></g></g><g transform="translate(135.154284, 334.049978)"><g><path d="M 3 0 L 1.546875 0 L 1.546875 -9.640625 L 3 -9.640625 Z M 1.421875 -12.25 C 1.421875 -12.582031 1.503906 -12.820312 1.671875 -12.96875 C 1.835938 -13.125 2.039062 -13.203125 2.28125 -13.203125 C 2.519531 -13.203125 2.722656 -13.125 2.890625 -12.96875 C 3.054688 -12.8125 3.140625 -12.570312 3.140625 -12.25 C 3.140625 -11.914062 3.054688 -11.664062 2.890625 -11.5 C 2.722656 -11.34375 2.519531 -11.265625 2.28125 -11.265625 C 2.039062 -11.265625 1.835938 -11.34375 1.671875 -11.5 C 1.503906 -11.664062 1.421875 -11.914062 1.421875 -12.25 Z M 1.421875 -12.25 "/></g></g><g transform="translate(139.707018, 334.049978)"><g><path d="M 5.390625 0.171875 C 4.003906 0.171875 2.925781 -0.253906 2.15625 -1.109375 C 1.394531 -1.972656 1.015625 -3.1875 1.015625 -4.75 C 1.015625 -6.363281 1.398438 -7.609375 2.171875 -8.484375 C 2.953125 -9.367188 4.0625 -9.8125 5.5 -9.8125 C 5.957031 -9.8125 6.414062 -9.757812 6.875 -9.65625 C 7.34375 -9.5625 7.707031 -9.445312 7.96875 -9.3125 L 7.53125 -8.0625 C 7.207031 -8.195312 6.851562 -8.304688 6.46875 -8.390625 C 6.082031 -8.472656 5.742188 -8.515625 5.453125 -8.515625 C 3.492188 -8.515625 2.515625 -7.265625 2.515625 -4.765625 C 2.515625 -3.585938 2.753906 -2.679688 3.234375 -2.046875 C 3.710938 -1.410156 4.421875 -1.09375 5.359375 -1.09375 C 6.160156 -1.09375 6.984375 -1.269531 7.828125 -1.625 L 7.828125 -0.328125 C 7.179688 0.00390625 6.367188 0.171875 5.390625 0.171875 Z M 5.390625 0.171875 "/></g></g><g transform="translate(148.276354, 334.049978)"><g><path d="M 7.46875 0 L 7.1875 -1.375 L 7.109375 -1.375 C 6.628906 -0.769531 6.148438 -0.359375 5.671875 -0.140625 C 5.191406 0.0664062 4.597656 0.171875 3.890625 0.171875 C 2.929688 0.171875 2.179688 -0.0703125 1.640625 -0.5625 C 1.097656 -1.050781 0.828125 -1.75 0.828125 -2.65625 C 0.828125 -4.601562 2.382812 -5.625 5.5 -5.71875 L 7.125 -5.78125 L 7.125 -6.375 C 7.125 -7.125 6.960938 -7.679688 6.640625 -8.046875 C 6.316406 -8.410156 5.796875 -8.59375 5.078125 -8.59375 C 4.273438 -8.59375 3.367188 -8.34375 2.359375 -7.84375 L 1.90625 -8.96875 C 2.382812 -9.226562 2.90625 -9.429688 3.46875 -9.578125 C 4.03125 -9.722656 4.597656 -9.796875 5.171875 -9.796875 C 6.316406 -9.796875 7.164062 -9.539062 7.71875 -9.03125 C 8.269531 -8.519531 8.546875 -7.703125 8.546875 -6.578125 L 8.546875 0 Z M 4.171875 -1.03125 C 5.078125 -1.03125 5.789062 -1.273438 6.3125 -1.765625 C 6.832031 -2.265625 7.09375 -2.96875 7.09375 -3.875 L 7.09375 -4.734375 L 5.640625 -4.671875 C 4.472656 -4.628906 3.632812 -4.445312 3.125 -4.125 C 2.613281 -3.8125 2.359375 -3.316406 2.359375 -2.640625 C 2.359375 -2.117188 2.515625 -1.71875 2.828125 -1.4375 C 3.148438 -1.164062 3.597656 -1.03125 4.171875 -1.03125 Z M 4.171875 -1.03125 "/></g></g><g transform="translate(158.287095, 334.049978)"><g><path d="M 3 0 L 1.546875 0 L 1.546875 -13.671875 L 3 -13.671875 Z M 3 0 "/></g></g><g transform="translate(162.839829, 334.049978)"><g/></g><g transform="translate(167.51561, 334.049978)"><g><path d="M 6.03125 0.171875 C 5.40625 0.171875 4.832031 0.0546875 4.3125 -0.171875 C 3.789062 -0.398438 3.351562 -0.753906 3 -1.234375 L 2.90625 -1.234375 C 2.96875 -0.671875 3 -0.140625 3 0.359375 L 3 4.328125 L 1.546875 4.328125 L 1.546875 -9.640625 L 2.734375 -9.640625 L 2.9375 -8.3125 L 3 -8.3125 C 3.375 -8.84375 3.8125 -9.222656 4.3125 -9.453125 C 4.8125 -9.691406 5.382812 -9.8125 6.03125 -9.8125 C 7.3125 -9.8125 8.296875 -9.375 8.984375 -8.5 C 9.679688 -7.625 10.03125 -6.398438 10.03125 -4.828125 C 10.03125 -3.242188 9.675781 -2.015625 8.96875 -1.140625 C 8.257812 -0.265625 7.28125 0.171875 6.03125 0.171875 Z M 5.8125 -8.5625 C 4.832031 -8.5625 4.125 -8.289062 3.6875 -7.75 C 3.25 -7.207031 3.019531 -6.34375 3 -5.15625 L 3 -4.828125 C 3 -3.472656 3.222656 -2.503906 3.671875 -1.921875 C 4.128906 -1.335938 4.859375 -1.046875 5.859375 -1.046875 C 6.691406 -1.046875 7.34375 -1.378906 7.8125 -2.046875 C 8.28125 -2.722656 8.515625 -3.65625 8.515625 -4.84375 C 8.515625 -6.039062 8.28125 -6.957031 7.8125 -7.59375 C 7.34375 -8.238281 6.675781 -8.5625 5.8125 -8.5625 Z M 5.8125 -8.5625 "/></g></g><g transform="translate(178.545883, 334.049978)"><g><path d="M 5.609375 0.171875 C 4.191406 0.171875 3.070312 -0.257812 2.25 -1.125 C 1.425781 -1.988281 1.015625 -3.191406 1.015625 -4.734375 C 1.015625 -6.285156 1.394531 -7.519531 2.15625 -8.4375 C 2.925781 -9.351562 3.953125 -9.8125 5.234375 -9.8125 C 6.441406 -9.8125 7.394531 -9.410156 8.09375 -8.609375 C 8.800781 -7.816406 9.15625 -6.769531 9.15625 -5.46875 L 9.15625 -4.546875 L 2.515625 -4.546875 C 2.546875 -3.421875 2.832031 -2.5625 3.375 -1.96875 C 3.914062 -1.382812 4.679688 -1.09375 5.671875 -1.09375 C 6.703125 -1.09375 7.726562 -1.3125 8.75 -1.75 L 8.75 -0.453125 C 8.226562 -0.222656 7.738281 -0.0625 7.28125 0.03125 C 6.820312 0.125 6.265625 0.171875 5.609375 0.171875 Z M 5.21875 -8.59375 C 4.445312 -8.59375 3.832031 -8.335938 3.375 -7.828125 C 2.914062 -7.328125 2.644531 -6.628906 2.5625 -5.734375 L 7.59375 -5.734375 C 7.59375 -6.660156 7.382812 -7.367188 6.96875 -7.859375 C 6.5625 -8.347656 5.976562 -8.59375 5.21875 -8.59375 Z M 5.21875 -8.59375 "/></g></g><g transform="translate(188.644515, 334.049978)"><g><path d="M 8.140625 0 L 8.140625 -6.234375 C 8.140625 -7.015625 7.957031 -7.597656 7.59375 -7.984375 C 7.238281 -8.367188 6.679688 -8.5625 5.921875 -8.5625 C 4.910156 -8.5625 4.171875 -8.289062 3.703125 -7.75 C 3.234375 -7.207031 3 -6.304688 3 -5.046875 L 3 0 L 1.546875 0 L 1.546875 -9.640625 L 2.734375 -9.640625 L 2.96875 -8.3125 L 3.046875 -8.3125 C 3.335938 -8.789062 3.753906 -9.160156 4.296875 -9.421875 C 4.835938 -9.679688 5.4375 -9.8125 6.09375 -9.8125 C 7.257812 -9.8125 8.132812 -9.53125 8.71875 -8.96875 C 9.300781 -8.40625 9.59375 -7.507812 9.59375 -6.28125 L 9.59375 0 Z M 8.140625 0 "/></g></g><g transform="translate(199.692366, 334.049978)"><g><path d="M 4.65625 -1.03125 C 4.914062 -1.03125 5.164062 -1.046875 5.40625 -1.078125 C 5.644531 -1.117188 5.835938 -1.160156 5.984375 -1.203125 L 5.984375 -0.09375 C 5.816406 -0.0078125 5.578125 0.0507812 5.265625 0.09375 C 4.960938 0.144531 4.691406 0.171875 4.453125 0.171875 C 2.585938 0.171875 1.65625 -0.804688 1.65625 -2.765625 L 1.65625 -8.5 L 0.265625 -8.5 L 0.265625 -9.203125 L 1.65625 -9.8125 L 2.265625 -11.859375 L 3.109375 -11.859375 L 3.109375 -9.640625 L 5.90625 -9.640625 L 5.90625 -8.5 L 3.109375 -8.5 L 3.109375 -2.828125 C 3.109375 -2.242188 3.242188 -1.796875 3.515625 -1.484375 C 3.796875 -1.179688 4.175781 -1.03125 4.65625 -1.03125 Z M 4.65625 -1.03125 "/></g></g><g transform="translate(206.046858, 334.049978)"><g><path d="M 5.9375 -9.8125 C 6.363281 -9.8125 6.75 -9.773438 7.09375 -9.703125 L 6.890625 -8.34375 C 6.492188 -8.4375 6.144531 -8.484375 5.84375 -8.484375 C 5.0625 -8.484375 4.390625 -8.164062 3.828125 -7.53125 C 3.273438 -6.894531 3 -6.109375 3 -5.171875 L 3 0 L 1.546875 0 L 1.546875 -9.640625 L 2.75 -9.640625 L 2.921875 -7.84375 L 2.984375 -7.84375 C 3.347656 -8.476562 3.78125 -8.960938 4.28125 -9.296875 C 4.78125 -9.640625 5.332031 -9.8125 5.9375 -9.8125 Z M 5.9375 -9.8125 "/></g></g><g transform="translate(213.394514, 334.049978)"><g><path d="M 2.921875 -9.640625 L 2.921875 -3.390625 C 2.921875 -2.597656 3.097656 -2.007812 3.453125 -1.625 C 3.804688 -1.238281 4.367188 -1.046875 5.140625 -1.046875 C 6.140625 -1.046875 6.875 -1.320312 7.34375 -1.875 C 7.8125 -2.425781 8.046875 -3.328125 8.046875 -4.578125 L 8.046875 -9.640625 L 9.5 -9.640625 L 9.5 0 L 8.296875 0 L 8.09375 -1.296875 L 8 -1.296875 C 7.707031 -0.816406 7.296875 -0.453125 6.765625 -0.203125 C 6.234375 0.046875 5.628906 0.171875 4.953125 0.171875 C 3.773438 0.171875 2.894531 -0.101562 2.3125 -0.65625 C 1.726562 -1.21875 1.4375 -2.109375 1.4375 -3.328125 L 1.4375 -9.640625 Z M 2.921875 -9.640625 "/></g></g><g transform="translate(224.442365, 334.049978)"><g/></g><g transform="translate(229.118146, 334.049978)"><g><path d="M 4.65625 -1.03125 C 4.914062 -1.03125 5.164062 -1.046875 5.40625 -1.078125 C 5.644531 -1.117188 5.835938 -1.160156 5.984375 -1.203125 L 5.984375 -0.09375 C 5.816406 -0.0078125 5.578125 0.0507812 5.265625 0.09375 C 4.960938 0.144531 4.691406 0.171875 4.453125 0.171875 C 2.585938 0.171875 1.65625 -0.804688 1.65625 -2.765625 L 1.65625 -8.5 L 0.265625 -8.5 L 0.265625 -9.203125 L 1.65625 -9.8125 L 2.265625 -11.859375 L 3.109375 -11.859375 L 3.109375 -9.640625 L 5.90625 -9.640625 L 5.90625 -8.5 L 3.109375 -8.5 L 3.109375 -2.828125 C 3.109375 -2.242188 3.242188 -1.796875 3.515625 -1.484375 C 3.796875 -1.179688 4.175781 -1.03125 4.65625 -1.03125 Z M 4.65625 -1.03125 "/></g></g><g transform="translate(235.472637, 334.049978)"><g><path d="M 5.609375 0.171875 C 4.191406 0.171875 3.070312 -0.257812 2.25 -1.125 C 1.425781 -1.988281 1.015625 -3.191406 1.015625 -4.734375 C 1.015625 -6.285156 1.394531 -7.519531 2.15625 -8.4375 C 2.925781 -9.351562 3.953125 -9.8125 5.234375 -9.8125 C 6.441406 -9.8125 7.394531 -9.410156 8.09375 -8.609375 C 8.800781 -7.816406 9.15625 -6.769531 9.15625 -5.46875 L 9.15625 -4.546875 L 2.515625 -4.546875 C 2.546875 -3.421875 2.832031 -2.5625 3.375 -1.96875 C 3.914062 -1.382812 4.679688 -1.09375 5.671875 -1.09375 C 6.703125 -1.09375 7.726562 -1.3125 8.75 -1.75 L 8.75 -0.453125 C 8.226562 -0.222656 7.738281 -0.0625 7.28125 0.03125 C 6.820312 0.125 6.265625 0.171875 5.609375 0.171875 Z M 5.21875 -8.59375 C 4.445312 -8.59375 3.832031 -8.335938 3.375 -7.828125 C 2.914062 -7.328125 2.644531 -6.628906 2.5625 -5.734375 L 7.59375 -5.734375 C 7.59375 -6.660156 7.382812 -7.367188 6.96875 -7.859375 C 6.5625 -8.347656 5.976562 -8.59375 5.21875 -8.59375 Z M 5.21875 -8.59375 "/></g></g><g transform="translate(245.571269, 334.049978)"><g><path d="M 3 0 L 1.546875 0 L 1.546875 -13.671875 L 3 -13.671875 Z M 3 0 "/></g></g><g transform="translate(250.124004, 334.049978)"><g><path d="M 5.609375 0.171875 C 4.191406 0.171875 3.070312 -0.257812 2.25 -1.125 C 1.425781 -1.988281 1.015625 -3.191406 1.015625 -4.734375 C 1.015625 -6.285156 1.394531 -7.519531 2.15625 -8.4375 C 2.925781 -9.351562 3.953125 -9.8125 5.234375 -9.8125 C 6.441406 -9.8125 7.394531 -9.410156 8.09375 -8.609375 C 8.800781 -7.816406 9.15625 -6.769531 9.15625 -5.46875 L 9.15625 -4.546875 L 2.515625 -4.546875 C 2.546875 -3.421875 2.832031 -2.5625 3.375 -1.96875 C 3.914062 -1.382812 4.679688 -1.09375 5.671875 -1.09375 C 6.703125 -1.09375 7.726562 -1.3125 8.75 -1.75 L 8.75 -0.453125 C 8.226562 -0.222656 7.738281 -0.0625 7.28125 0.03125 C 6.820312 0.125 6.265625 0.171875 5.609375 0.171875 Z M 5.21875 -8.59375 C 4.445312 -8.59375 3.832031 -8.335938 3.375 -7.828125 C 2.914062 -7.328125 2.644531 -6.628906 2.5625 -5.734375 L 7.59375 -5.734375 C 7.59375 -6.660156 7.382812 -7.367188 6.96875 -7.859375 C 6.5625 -8.347656 5.976562 -8.59375 5.21875 -8.59375 Z M 5.21875 -8.59375 "/></g></g><g transform="translate(260.222636, 334.049978)"><g><path d="M 5.890625 -8.5 L 3.4375 -8.5 L 3.4375 0 L 1.984375 0 L 1.984375 -8.5 L 0.25 -8.5 L 0.25 -9.15625 L 1.984375 -9.6875 L 1.984375 -10.21875 C 1.984375 -12.582031 3.015625 -13.765625 5.078125 -13.765625 C 5.585938 -13.765625 6.1875 -13.664062 6.875 -13.46875 L 6.5 -12.296875 C 5.9375 -12.472656 5.453125 -12.5625 5.046875 -12.5625 C 4.503906 -12.5625 4.097656 -12.378906 3.828125 -12.015625 C 3.566406 -11.648438 3.4375 -11.0625 3.4375 -10.25 L 3.4375 -9.640625 L 5.890625 -9.640625 Z M 5.890625 -8.5 "/></g></g><g transform="translate(266.322245, 334.049978)"><g><path d="M 9.859375 -4.828125 C 9.859375 -3.253906 9.460938 -2.023438 8.671875 -1.140625 C 7.878906 -0.265625 6.785156 0.171875 5.390625 0.171875 C 4.535156 0.171875 3.769531 -0.0234375 3.09375 -0.421875 C 2.425781 -0.828125 1.910156 -1.410156 1.546875 -2.171875 C 1.191406 -2.929688 1.015625 -3.816406 1.015625 -4.828125 C 1.015625 -6.398438 1.40625 -7.625 2.1875 -8.5 C 2.96875 -9.375 4.054688 -9.8125 5.453125 -9.8125 C 6.804688 -9.8125 7.878906 -9.363281 8.671875 -8.46875 C 9.460938 -7.570312 9.859375 -6.359375 9.859375 -4.828125 Z M 2.515625 -4.828125 C 2.515625 -3.597656 2.757812 -2.660156 3.25 -2.015625 C 3.75 -1.367188 4.476562 -1.046875 5.4375 -1.046875 C 6.382812 -1.046875 7.101562 -1.363281 7.59375 -2 C 8.09375 -2.644531 8.34375 -3.585938 8.34375 -4.828125 C 8.34375 -6.046875 8.09375 -6.972656 7.59375 -7.609375 C 7.101562 -8.242188 6.378906 -8.5625 5.421875 -8.5625 C 4.460938 -8.5625 3.738281 -8.25 3.25 -7.625 C 2.757812 -7 2.515625 -6.066406 2.515625 -4.828125 Z M 2.515625 -4.828125 "/></g></g><g transform="translate(277.194314, 334.049978)"><g><path d="M 8.140625 0 L 8.140625 -6.234375 C 8.140625 -7.015625 7.957031 -7.597656 7.59375 -7.984375 C 7.238281 -8.367188 6.679688 -8.5625 5.921875 -8.5625 C 4.910156 -8.5625 4.171875 -8.289062 3.703125 -7.75 C 3.234375 -7.207031 3 -6.304688 3 -5.046875 L 3 0 L 1.546875 0 L 1.546875 -9.640625 L 2.734375 -9.640625 L 2.96875 -8.3125 L 3.046875 -8.3125 C 3.335938 -8.789062 3.753906 -9.160156 4.296875 -9.421875 C 4.835938 -9.679688 5.4375 -9.8125 6.09375 -9.8125 C 7.257812 -9.8125 8.132812 -9.53125 8.71875 -8.96875 C 9.300781 -8.40625 9.59375 -7.507812 9.59375 -6.28125 L 9.59375 0 Z M 8.140625 0 "/></g></g><g transform="translate(288.242165, 334.049978)"><g><path d="M 2.921875 -9.640625 L 2.921875 -3.390625 C 2.921875 -2.597656 3.097656 -2.007812 3.453125 -1.625 C 3.804688 -1.238281 4.367188 -1.046875 5.140625 -1.046875 C 6.140625 -1.046875 6.875 -1.320312 7.34375 -1.875 C 7.8125 -2.425781 8.046875 -3.328125 8.046875 -4.578125 L 8.046875 -9.640625 L 9.5 -9.640625 L 9.5 0 L 8.296875 0 L 8.09375 -1.296875 L 8 -1.296875 C 7.707031 -0.816406 7.296875 -0.453125 6.765625 -0.203125 C 6.234375 0.046875 5.628906 0.171875 4.953125 0.171875 C 3.773438 0.171875 2.894531 -0.101562 2.3125 -0.65625 C 1.726562 -1.21875 1.4375 -2.109375 1.4375 -3.328125 L 1.4375 -9.640625 Z M 2.921875 -9.640625 "/></g></g><g transform="translate(299.290016, 334.049978)"><g><path d="M 3 0 L 1.546875 0 L 1.546875 -13.671875 L 3 -13.671875 Z M 3 0 "/></g></g><g transform="translate(303.84275, 334.049978)"><g/></g><g transform="translate(308.518531, 334.049978)"><g><path d="M 4.65625 -1.03125 C 4.914062 -1.03125 5.164062 -1.046875 5.40625 -1.078125 C 5.644531 -1.117188 5.835938 -1.160156 5.984375 -1.203125 L 5.984375 -0.09375 C 5.816406 -0.0078125 5.578125 0.0507812 5.265625 0.09375 C 4.960938 0.144531 4.691406 0.171875 4.453125 0.171875 C 2.585938 0.171875 1.65625 -0.804688 1.65625 -2.765625 L 1.65625 -8.5 L 0.265625 -8.5 L 0.265625 -9.203125 L 1.65625 -9.8125 L 2.265625 -11.859375 L 3.109375 -11.859375 L 3.109375 -9.640625 L 5.90625 -9.640625 L 5.90625 -8.5 L 3.109375 -8.5 L 3.109375 -2.828125 C 3.109375 -2.242188 3.242188 -1.796875 3.515625 -1.484375 C 3.796875 -1.179688 4.175781 -1.03125 4.65625 -1.03125 Z M 4.65625 -1.03125 "/></g></g><g transform="translate(314.873023, 334.049978)"><g><path d="M 7.46875 0 L 7.1875 -1.375 L 7.109375 -1.375 C 6.628906 -0.769531 6.148438 -0.359375 5.671875 -0.140625 C 5.191406 0.0664062 4.597656 0.171875 3.890625 0.171875 C 2.929688 0.171875 2.179688 -0.0703125 1.640625 -0.5625 C 1.097656 -1.050781 0.828125 -1.75 0.828125 -2.65625 C 0.828125 -4.601562 2.382812 -5.625 5.5 -5.71875 L 7.125 -5.78125 L 7.125 -6.375 C 7.125 -7.125 6.960938 -7.679688 6.640625 -8.046875 C 6.316406 -8.410156 5.796875 -8.59375 5.078125 -8.59375 C 4.273438 -8.59375 3.367188 -8.34375 2.359375 -7.84375 L 1.90625 -8.96875 C 2.382812 -9.226562 2.90625 -9.429688 3.46875 -9.578125 C 4.03125 -9.722656 4.597656 -9.796875 5.171875 -9.796875 C 6.316406 -9.796875 7.164062 -9.539062 7.71875 -9.03125 C 8.269531 -8.519531 8.546875 -7.703125 8.546875 -6.578125 L 8.546875 0 Z M 4.171875 -1.03125 C 5.078125 -1.03125 5.789062 -1.273438 6.3125 -1.765625 C 6.832031 -2.265625 7.09375 -2.96875 7.09375 -3.875 L 7.09375 -4.734375 L 5.640625 -4.671875 C 4.472656 -4.628906 3.632812 -4.445312 3.125 -4.125 C 2.613281 -3.8125 2.359375 -3.316406 2.359375 -2.640625 C 2.359375 -2.117188 2.515625 -1.71875 2.828125 -1.4375 C 3.148438 -1.164062 3.597656 -1.03125 4.171875 -1.03125 Z M 5.25 -10.90625 C 4.4375 -10.90625 3.800781 -11.101562 3.34375 -11.5 C 2.882812 -11.90625 2.628906 -12.492188 2.578125 -13.265625 L 3.484375 -13.265625 C 3.523438 -12.972656 3.601562 -12.742188 3.71875 -12.578125 C 3.84375 -12.421875 4.007812 -12.300781 4.21875 -12.21875 C 4.4375 -12.144531 4.796875 -12.109375 5.296875 -12.109375 C 5.878906 -12.109375 6.3125 -12.203125 6.59375 -12.390625 C 6.875 -12.578125 7.046875 -12.867188 7.109375 -13.265625 L 8.03125 -13.265625 C 7.96875 -12.523438 7.691406 -11.945312 7.203125 -11.53125 C 6.710938 -11.113281 6.0625 -10.90625 5.25 -10.90625 Z M 5.25 -10.90625 "/></g></g><g transform="translate(324.883764, 334.049978)"><g><path d="M 2.921875 -9.640625 L 2.921875 -3.390625 C 2.921875 -2.597656 3.097656 -2.007812 3.453125 -1.625 C 3.804688 -1.238281 4.367188 -1.046875 5.140625 -1.046875 C 6.140625 -1.046875 6.875 -1.320312 7.34375 -1.875 C 7.8125 -2.425781 8.046875 -3.328125 8.046875 -4.578125 L 8.046875 -9.640625 L 9.5 -9.640625 L 9.5 0 L 8.296875 0 L 8.09375 -1.296875 L 8 -1.296875 C 7.707031 -0.816406 7.296875 -0.453125 6.765625 -0.203125 C 6.234375 0.046875 5.628906 0.171875 4.953125 0.171875 C 3.773438 0.171875 2.894531 -0.101562 2.3125 -0.65625 C 1.726562 -1.21875 1.4375 -2.109375 1.4375 -3.328125 L 1.4375 -9.640625 Z M 2.921875 -9.640625 "/></g></g><g transform="translate(335.931615, 334.049978)"><g/></g><g transform="translate(340.607396, 334.049978)"><g><path d="M 2.859375 -3.546875 L 1.9375 -3.546875 L 1.5 -12.84375 L 3.3125 -12.84375 Z M 1.34375 -0.9375 C 1.34375 -1.726562 1.691406 -2.125 2.390625 -2.125 C 2.734375 -2.125 2.992188 -2.019531 3.171875 -1.8125 C 3.359375 -1.613281 3.453125 -1.320312 3.453125 -0.9375 C 3.453125 -0.5625 3.359375 -0.269531 3.171875 -0.0625 C 2.984375 0.144531 2.722656 0.25 2.390625 0.25 C 2.085938 0.25 1.835938 0.160156 1.640625 -0.015625 C 1.441406 -0.203125 1.34375 -0.507812 1.34375 -0.9375 Z M 1.34375 -0.9375 "/></g></g></g></svg>