<svg xmlns="http://www.w3.org/2000/svg" xmlns:xlink="http://www.w3.org/1999/xlink" width="500" zoomAndPan="magnify" viewBox="0 0 375 374.999991" height="500" preserveAspectRatio="xMidYMid meet" version="1.0"><defs><clipPath id="2076888455"><path d="M 37.5 112.5 L 120 112.5 L 120 262.5 L 37.5 262.5 Z M 37.5 112.5 " clip-rule="nonzero"/></clipPath><clipPath id="fb403aec3b"><path d="M 20 207 L 84 207 L 84 237.9375 L 20 237.9375 Z M 20 207 " clip-rule="nonzero"/></clipPath><clipPath id="71eb571fe0"><path d="M 20 151 L 139.09375 151 L 139.09375 213 L 20 213 Z M 20 151 " clip-rule="nonzero"/></clipPath><clipPath id="01387c026b"><path d="M 78 136.6875 L 114 136.6875 L 114 173 L 78 173 Z M 78 136.6875 " clip-rule="nonzero"/></clipPath><clipPath id="e0b8bb8d21"><path d="M 18.34375 217 L 29 217 L 29 228 L 18.34375 228 Z M 18.34375 217 " clip-rule="nonzero"/></clipPath><clipPath id="829789092f"><path d="M 18.34375 192 L 29 192 L 29 203 L 18.34375 203 Z M 18.34375 192 " clip-rule="nonzero"/></clipPath></defs><g clip-path="url(#2076888455)"><path fill="#00c4cc" d="M 54.351562 115.558594 C 46.78125 115.558594 40.621094 121.730469 40.621094 129.316406 L 40.621094 245.683594 C 40.621094 253.273438 46.78125 259.445312 54.351562 259.445312 L 103.160156 259.445312 C 110.730469 259.445312 116.890625 253.273438 116.890625 245.683594 L 116.890625 129.316406 C 116.890625 121.730469 110.730469 115.558594 103.160156 115.558594 Z M 103.160156 262.503906 L 54.351562 262.503906 C 45.097656 262.503906 37.570312 254.957031 37.570312 245.683594 L 37.570312 129.316406 C 37.570312 120.042969 45.097656 112.5 54.351562 112.5 L 103.160156 112.5 C 112.414062 112.5 119.941406 120.042969 119.941406 129.316406 L 119.941406 245.683594 C 119.941406 254.957031 112.414062 262.503906 103.160156 262.503906 " fill-opacity="1" fill-rule="nonzero"/></g><path fill="#00c4cc" d="M 84.808594 120.085938 L 72.605469 120.085938 C 72.183594 120.085938 71.84375 119.742188 71.84375 119.320312 C 71.84375 118.898438 72.183594 118.558594 72.605469 118.558594 L 84.808594 118.558594 C 85.230469 118.558594 85.574219 118.898438 85.574219 119.320312 C 85.574219 119.742188 85.230469 120.085938 84.808594 120.085938 " fill-opacity="1" fill-rule="nonzero"/><path fill="#00c4cc" d="M 91.570312 119.320312 C 91.570312 119.953125 91.058594 120.46875 90.425781 120.46875 C 89.796875 120.46875 89.285156 119.953125 89.285156 119.320312 C 89.285156 118.6875 89.796875 118.175781 90.425781 118.175781 C 91.058594 118.175781 91.570312 118.6875 91.570312 119.320312 " fill-opacity="1" fill-rule="nonzero"/><path fill="#00c4cc" d="M 39.136719 184.386719 L 38.679688 182.863281 L 49.746094 179.542969 C 50.015625 179.464844 50.234375 179.261719 50.335938 179 L 51.960938 174.875 C 52.277344 174.070312 52.984375 173.484375 53.832031 173.324219 L 63.425781 171.539062 C 63.714844 171.484375 63.960938 171.292969 64.085938 171.027344 L 68.925781 160.75 C 69.109375 160.355469 69.578125 160.1875 69.972656 160.375 L 69.984375 160.378906 C 70.378906 160.566406 70.546875 161.035156 70.359375 161.429688 L 65.523438 171.707031 C 65.183594 172.433594 64.507812 172.957031 63.714844 173.101562 L 54.125 174.890625 C 53.8125 174.949219 53.554688 175.164062 53.4375 175.457031 L 51.8125 179.585938 C 51.53125 180.304688 50.941406 180.847656 50.203125 181.070312 L 39.136719 184.386719 " fill-opacity="1" fill-rule="nonzero"/><path fill="#00c4cc" d="M 75.136719 168.429688 L 67.179688 166.753906 L 67.507812 165.195312 L 75.464844 166.867188 C 75.886719 166.960938 76.160156 167.375 76.074219 167.800781 L 76.070312 167.816406 C 75.980469 168.246094 75.5625 168.515625 75.136719 168.429688 " fill-opacity="1" fill-rule="nonzero"/><path fill="#00c4cc" d="M 57.6875 173.402344 L 56.558594 166.550781 L 58.128906 166.289062 L 59.253906 173.140625 L 57.6875 173.402344 " fill-opacity="1" fill-rule="nonzero"/><path fill="#00c4cc" d="M 57.871094 167.015625 L 56.816406 165.824219 L 59.921875 163.0625 C 60.246094 162.777344 60.742188 162.804688 61.03125 163.128906 L 61.042969 163.144531 C 61.328125 163.46875 61.300781 163.964844 60.972656 164.253906 L 57.871094 167.015625 " fill-opacity="1" fill-rule="nonzero"/><path fill="#00c4cc" d="M 57.015625 167.144531 L 48.933594 163.453125 C 48.539062 163.273438 48.363281 162.808594 48.542969 162.410156 L 48.550781 162.394531 C 48.730469 162 49.195312 161.824219 49.589844 162.003906 L 57.675781 165.695312 L 57.015625 167.144531 " fill-opacity="1" fill-rule="nonzero"/><path fill="#00c4cc" d="M 64.925781 214.527344 L 64.910156 214.519531 C 64.574219 214.242188 64.523438 213.746094 64.800781 213.410156 L 73.519531 202.664062 C 73.710938 202.429688 73.773438 202.117188 73.6875 201.824219 L 71.964844 195.984375 C 71.84375 195.578125 71.460938 195.304688 71.039062 195.328125 L 63.925781 195.683594 C 62.824219 195.742188 61.832031 195.082031 61.449219 194.046875 L 58.859375 187.035156 C 58.726562 186.675781 58.382812 186.4375 58 186.4375 L 49.339844 186.4375 C 48.601562 186.4375 47.902344 186.109375 47.425781 185.546875 L 44.636719 182.238281 L 45.851562 181.210938 L 48.640625 184.519531 C 48.8125 184.726562 49.070312 184.84375 49.339844 184.84375 L 58 184.84375 C 59.046875 184.84375 59.984375 185.5 60.347656 186.484375 L 62.941406 193.492188 C 63.082031 193.871094 63.445312 194.117188 63.847656 194.09375 L 70.960938 193.738281 C 72.117188 193.679688 73.160156 194.421875 73.488281 195.53125 L 75.210938 201.371094 C 75.445312 202.167969 75.273438 203.027344 74.753906 203.667969 L 66.03125 214.414062 C 65.757812 214.753906 65.261719 214.800781 64.925781 214.527344 " fill-opacity="1" fill-rule="nonzero"/><path fill="#00c4cc" d="M 75.558594 213.359375 L 70.273438 207.765625 L 71.425781 206.667969 L 76.714844 212.269531 C 77.011719 212.582031 77 213.082031 76.683594 213.382812 L 76.671875 213.390625 C 76.355469 213.691406 75.859375 213.679688 75.558594 213.359375 " fill-opacity="1" fill-rule="nonzero"/><path fill="#00c4cc" d="M 52.332031 196.664062 L 51.484375 195.316406 L 60.488281 189.621094 L 61.335938 190.96875 L 52.332031 196.664062 " fill-opacity="1" fill-rule="nonzero"/><path fill="#00c4cc" d="M 52.269531 202.472656 L 51.125 196.132812 L 52.691406 195.847656 L 53.832031 202.1875 C 53.910156 202.617188 53.625 203.027344 53.199219 203.105469 L 53.183594 203.109375 C 52.753906 203.183594 52.347656 202.902344 52.269531 202.472656 " fill-opacity="1" fill-rule="nonzero"/><path fill="#00c4cc" d="M 51.621094 196.734375 L 45.691406 194.417969 C 45.285156 194.257812 45.085938 193.800781 45.242188 193.394531 L 45.246094 193.382812 C 45.40625 192.976562 45.859375 192.777344 46.265625 192.933594 L 52.199219 195.25 L 51.621094 196.734375 " fill-opacity="1" fill-rule="nonzero"/><path fill="#00c4cc" d="M 67.59375 195.144531 L 66.054688 194.753906 L 69.042969 182.949219 L 70.582031 183.34375 L 67.59375 195.144531 " fill-opacity="1" fill-rule="nonzero"/><path fill="#00c4cc" d="M 70.003906 183.917969 L 69.621094 182.371094 L 75.722656 180.863281 C 76.144531 180.761719 76.570312 181.015625 76.675781 181.441406 L 76.679688 181.457031 C 76.785156 181.878906 76.527344 182.304688 76.105469 182.410156 L 70.003906 183.917969 " fill-opacity="1" fill-rule="nonzero"/><path fill="#00c4cc" d="M 69.3125 183.765625 L 65.441406 180.628906 C 65.105469 180.355469 65.054688 179.859375 65.328125 179.519531 L 65.335938 179.507812 C 65.609375 179.171875 66.105469 179.117188 66.441406 179.390625 L 70.3125 182.527344 L 69.3125 183.765625 " fill-opacity="1" fill-rule="nonzero"/><g clip-path="url(#fb403aec3b)"><path fill="#5ce1e6" d="M 83.75 210.082031 C 83.75 235.761719 64.269531 237.910156 46.015625 237.910156 C 25.390625 237.910156 20.859375 226.953125 20.859375 222.730469 C 20.859375 222.394531 20.925781 222.074219 21.050781 221.761719 C 21.179688 221.453125 21.363281 221.179688 21.597656 220.941406 C 21.832031 220.707031 22.105469 220.523438 22.414062 220.394531 C 22.722656 220.265625 23.042969 220.203125 23.375 220.203125 C 23.710938 220.203125 24.03125 220.265625 24.339844 220.394531 C 24.648438 220.523438 24.917969 220.707031 25.15625 220.941406 C 25.390625 221.179688 25.574219 221.453125 25.699219 221.761719 C 25.828125 222.074219 25.890625 222.394531 25.890625 222.730469 C 25.890625 225.359375 29.589844 232.851562 46.015625 232.851562 C 66.730469 232.851562 78.71875 229.128906 78.71875 210.082031 C 78.71875 209.746094 78.785156 209.425781 78.910156 209.113281 C 79.039062 208.804688 79.222656 208.53125 79.457031 208.292969 C 79.691406 208.054688 79.964844 207.875 80.273438 207.746094 C 80.582031 207.617188 80.902344 207.554688 81.234375 207.554688 C 81.570312 207.554688 81.890625 207.617188 82.199219 207.746094 C 82.507812 207.875 82.777344 208.054688 83.015625 208.292969 C 83.25 208.53125 83.433594 208.804688 83.558594 209.113281 C 83.6875 209.425781 83.75 209.746094 83.75 210.082031 Z M 83.75 210.082031 " fill-opacity="1" fill-rule="nonzero"/></g><g clip-path="url(#71eb571fe0)"><path fill="#5ce1e6" d="M 139.09375 174.664062 L 139.09375 189.84375 C 139.09375 190.589844 139.058594 191.332031 138.984375 192.074219 C 138.914062 192.816406 138.804688 193.554688 138.660156 194.285156 C 138.515625 195.015625 138.335938 195.738281 138.121094 196.453125 C 137.90625 197.167969 137.65625 197.867188 137.371094 198.558594 C 137.089844 199.246094 136.769531 199.917969 136.421875 200.578125 C 136.074219 201.234375 135.691406 201.875 135.28125 202.492188 C 134.867188 203.113281 134.425781 203.710938 133.957031 204.289062 C 133.484375 204.863281 132.988281 205.417969 132.464844 205.945312 C 131.941406 206.472656 131.390625 206.972656 130.816406 207.445312 C 130.246094 207.917969 129.648438 208.359375 129.03125 208.773438 C 128.417969 209.191406 127.78125 209.574219 127.128906 209.925781 C 126.472656 210.277344 125.804688 210.59375 125.117188 210.878906 C 124.433594 211.164062 123.738281 211.414062 123.027344 211.632812 C 122.316406 211.847656 121.597656 212.03125 120.871094 212.175781 C 120.144531 212.320312 119.410156 212.429688 118.675781 212.503906 C 117.9375 212.574219 117.195312 212.613281 116.453125 212.613281 L 81.234375 212.613281 C 80.902344 212.613281 80.582031 212.546875 80.273438 212.417969 C 79.964844 212.292969 79.691406 212.109375 79.457031 211.871094 C 79.222656 211.632812 79.039062 211.359375 78.910156 211.050781 C 78.785156 210.742188 78.71875 210.417969 78.71875 210.082031 C 78.71875 191.039062 66.730469 187.3125 46.015625 187.3125 C 29.589844 187.3125 25.890625 194.808594 25.890625 197.433594 C 25.890625 197.769531 25.828125 198.089844 25.699219 198.402344 C 25.574219 198.710938 25.390625 198.984375 25.15625 199.222656 C 24.917969 199.460938 24.648438 199.640625 24.339844 199.769531 C 24.03125 199.898438 23.710938 199.964844 23.375 199.964844 C 23.042969 199.964844 22.722656 199.898438 22.414062 199.769531 C 22.105469 199.640625 21.832031 199.460938 21.597656 199.222656 C 21.363281 198.984375 21.179688 198.710938 21.050781 198.402344 C 20.925781 198.089844 20.859375 197.769531 20.859375 197.433594 C 20.859375 193.214844 25.390625 182.253906 46.015625 182.253906 C 63.65625 182.253906 82.433594 184.277344 83.6875 207.554688 L 116.453125 207.554688 C 117.03125 207.554688 117.605469 207.523438 118.179688 207.46875 C 118.753906 207.410156 119.324219 207.324219 119.890625 207.210938 C 120.457031 207.097656 121.015625 206.957031 121.566406 206.789062 C 122.117188 206.621094 122.660156 206.425781 123.195312 206.203125 C 123.726562 205.984375 124.246094 205.734375 124.753906 205.460938 C 125.265625 205.1875 125.757812 204.890625 126.238281 204.566406 C 126.71875 204.246094 127.179688 203.902344 127.625 203.53125 C 128.070312 203.164062 128.5 202.777344 128.90625 202.367188 C 129.3125 201.957031 129.699219 201.527344 130.066406 201.078125 C 130.433594 200.628906 130.777344 200.164062 131.097656 199.683594 C 131.417969 199.199219 131.714844 198.703125 131.984375 198.191406 C 132.257812 197.679688 132.503906 197.15625 132.722656 196.621094 C 132.945312 196.085938 133.136719 195.539062 133.304688 194.984375 C 133.472656 194.429688 133.613281 193.867188 133.726562 193.296875 C 133.839844 192.730469 133.921875 192.15625 133.980469 191.578125 C 134.035156 191.003906 134.0625 190.425781 134.0625 189.84375 L 134.0625 174.664062 C 134.0625 174.085938 134.035156 173.507812 133.980469 172.929688 C 133.921875 172.351562 133.839844 171.777344 133.726562 171.210938 C 133.613281 170.640625 133.472656 170.078125 133.304688 169.523438 C 133.136719 168.96875 132.945312 168.425781 132.722656 167.886719 C 132.503906 167.351562 132.257812 166.828125 131.984375 166.316406 C 131.714844 165.804688 131.417969 165.308594 131.097656 164.828125 C 130.777344 164.34375 130.433594 163.878906 130.066406 163.429688 C 129.699219 162.980469 129.3125 162.554688 128.90625 162.144531 C 128.5 161.734375 128.070312 161.34375 127.625 160.976562 C 127.179688 160.609375 126.71875 160.261719 126.238281 159.941406 C 125.757812 159.617188 125.265625 159.320312 124.753906 159.046875 C 124.246094 158.773438 123.726562 158.527344 123.195312 158.304688 C 122.660156 158.082031 122.117188 157.886719 121.566406 157.71875 C 121.015625 157.550781 120.457031 157.410156 119.890625 157.296875 C 119.324219 157.183594 118.753906 157.097656 118.179688 157.042969 C 117.605469 156.984375 117.03125 156.957031 116.453125 156.957031 L 111.421875 156.957031 C 111.089844 156.957031 110.769531 156.890625 110.460938 156.761719 C 110.152344 156.636719 109.878906 156.453125 109.644531 156.214844 C 109.410156 155.976562 109.226562 155.703125 109.097656 155.394531 C 108.972656 155.085938 108.90625 154.761719 108.90625 154.425781 C 108.90625 154.089844 108.972656 153.769531 109.097656 153.457031 C 109.226562 153.148438 109.410156 152.875 109.644531 152.636719 C 109.878906 152.398438 110.152344 152.21875 110.460938 152.089844 C 110.769531 151.960938 111.089844 151.898438 111.421875 151.898438 L 116.453125 151.898438 C 117.195312 151.898438 117.9375 151.933594 118.675781 152.007812 C 119.410156 152.078125 120.144531 152.1875 120.871094 152.335938 C 121.597656 152.480469 122.316406 152.660156 123.027344 152.875 C 123.738281 153.09375 124.433594 153.34375 125.117188 153.628906 C 125.804688 153.914062 126.472656 154.234375 127.128906 154.585938 C 127.78125 154.9375 128.417969 155.320312 129.03125 155.734375 C 129.648438 156.148438 130.246094 156.589844 130.816406 157.066406 C 131.390625 157.539062 131.941406 158.039062 132.464844 158.566406 C 132.988281 159.09375 133.484375 159.644531 133.957031 160.222656 C 134.425781 160.796875 134.867188 161.394531 135.28125 162.015625 C 135.691406 162.636719 136.074219 163.273438 136.421875 163.933594 C 136.769531 164.589844 137.089844 165.261719 137.371094 165.953125 C 137.65625 166.640625 137.90625 167.34375 138.121094 168.054688 C 138.335938 168.769531 138.515625 169.492188 138.660156 170.222656 C 138.804688 170.953125 138.914062 171.691406 138.984375 172.433594 C 139.058594 173.175781 139.09375 173.917969 139.09375 174.664062 Z M 139.09375 174.664062 " fill-opacity="1" fill-rule="nonzero"/></g><g clip-path="url(#01387c026b)"><path fill="#00c2cb" d="M 96.328125 136.71875 C 96.90625 136.71875 97.480469 136.746094 98.054688 136.804688 C 98.628906 136.859375 99.199219 136.945312 99.765625 137.058594 C 100.332031 137.171875 100.890625 137.3125 101.441406 137.480469 C 101.992188 137.648438 102.535156 137.84375 103.070312 138.066406 C 103.601562 138.289062 104.121094 138.535156 104.628906 138.808594 C 105.140625 139.082031 105.632812 139.378906 106.113281 139.703125 C 106.59375 140.023438 107.054688 140.371094 107.5 140.738281 C 107.945312 141.105469 108.375 141.496094 108.78125 141.90625 C 109.1875 142.316406 109.574219 142.742188 109.941406 143.191406 C 110.308594 143.640625 110.652344 144.105469 110.972656 144.585938 C 111.292969 145.070312 111.585938 145.566406 111.859375 146.078125 C 112.132812 146.589844 112.378906 147.113281 112.597656 147.648438 C 112.820312 148.183594 113.011719 148.730469 113.179688 149.285156 C 113.347656 149.839844 113.488281 150.402344 113.601562 150.972656 C 113.714844 151.539062 113.796875 152.113281 113.855469 152.691406 C 113.910156 153.269531 113.9375 153.847656 113.9375 154.425781 C 113.9375 155.007812 113.910156 155.585938 113.855469 156.164062 C 113.796875 156.738281 113.714844 157.3125 113.601562 157.882812 C 113.488281 158.449219 113.347656 159.011719 113.179688 159.566406 C 113.011719 160.121094 112.820312 160.667969 112.597656 161.203125 C 112.378906 161.738281 112.132812 162.261719 111.859375 162.773438 C 111.589844 163.285156 111.292969 163.78125 110.972656 164.265625 C 110.652344 164.746094 110.308594 165.210938 109.941406 165.660156 C 109.574219 166.109375 109.1875 166.539062 108.78125 166.949219 C 108.375 167.359375 107.945312 167.746094 107.5 168.117188 C 107.054688 168.484375 106.59375 168.828125 106.113281 169.152344 C 105.632812 169.472656 105.140625 169.769531 104.628906 170.042969 C 104.121094 170.316406 103.601562 170.566406 103.070312 170.789062 C 102.535156 171.007812 101.992188 171.203125 101.441406 171.371094 C 100.890625 171.539062 100.332031 171.683594 99.765625 171.792969 C 99.199219 171.90625 98.628906 171.992188 98.054688 172.050781 C 97.480469 172.105469 96.90625 172.136719 96.328125 172.136719 C 95.753906 172.136719 95.175781 172.105469 94.605469 172.050781 C 94.03125 171.992188 93.460938 171.90625 92.894531 171.792969 C 92.328125 171.683594 91.769531 171.539062 91.21875 171.371094 C 90.667969 171.203125 90.125 171.007812 89.589844 170.789062 C 89.058594 170.566406 88.539062 170.316406 88.027344 170.042969 C 87.519531 169.769531 87.027344 169.472656 86.546875 169.152344 C 86.066406 168.828125 85.605469 168.484375 85.160156 168.117188 C 84.710938 167.746094 84.285156 167.359375 83.878906 166.949219 C 83.46875 166.539062 83.082031 166.109375 82.71875 165.660156 C 82.351562 165.210938 82.007812 164.746094 81.6875 164.265625 C 81.367188 163.78125 81.070312 163.285156 80.800781 162.773438 C 80.527344 162.261719 80.28125 161.738281 80.0625 161.203125 C 79.839844 160.667969 79.644531 160.121094 79.480469 159.566406 C 79.3125 159.011719 79.171875 158.449219 79.058594 157.882812 C 78.945312 157.3125 78.863281 156.738281 78.804688 156.164062 C 78.75 155.585938 78.71875 155.007812 78.71875 154.425781 C 78.71875 153.847656 78.75 153.269531 78.804688 152.691406 C 78.863281 152.113281 78.945312 151.539062 79.058594 150.972656 C 79.171875 150.402344 79.3125 149.839844 79.480469 149.285156 C 79.644531 148.730469 79.839844 148.183594 80.0625 147.648438 C 80.28125 147.113281 80.527344 146.589844 80.800781 146.078125 C 81.070312 145.566406 81.367188 145.070312 81.6875 144.585938 C 82.007812 144.105469 82.351562 143.640625 82.71875 143.191406 C 83.082031 142.742188 83.46875 142.316406 83.878906 141.90625 C 84.285156 141.496094 84.710938 141.105469 85.160156 140.738281 C 85.605469 140.371094 86.066406 140.023438 86.546875 139.703125 C 87.027344 139.378906 87.519531 139.082031 88.027344 138.808594 C 88.539062 138.535156 89.058594 138.289062 89.589844 138.066406 C 90.125 137.84375 90.667969 137.648438 91.21875 137.480469 C 91.769531 137.3125 92.328125 137.171875 92.894531 137.058594 C 93.460938 136.945312 94.03125 136.859375 94.605469 136.804688 C 95.175781 136.746094 95.753906 136.71875 96.328125 136.71875 Z M 96.328125 136.71875 " fill-opacity="1" fill-rule="nonzero"/></g><path fill="#5ce1e6" d="M 96.328125 146.835938 C 96.824219 146.835938 97.316406 146.886719 97.800781 146.984375 C 98.289062 147.078125 98.761719 147.222656 99.21875 147.414062 C 99.675781 147.605469 100.109375 147.839844 100.523438 148.117188 C 100.933594 148.394531 101.316406 148.707031 101.667969 149.058594 C 102.015625 149.414062 102.328125 149.796875 102.605469 150.210938 C 102.878906 150.625 103.113281 151.0625 103.300781 151.523438 C 103.492188 151.980469 103.636719 152.457031 103.730469 152.945312 C 103.828125 153.433594 103.875 153.929688 103.875 154.425781 C 103.875 154.925781 103.828125 155.417969 103.730469 155.90625 C 103.636719 156.394531 103.492188 156.871094 103.300781 157.332031 C 103.113281 157.792969 102.878906 158.230469 102.605469 158.644531 C 102.328125 159.058594 102.015625 159.441406 101.667969 159.792969 C 101.316406 160.144531 100.933594 160.460938 100.523438 160.738281 C 100.109375 161.011719 99.675781 161.246094 99.21875 161.4375 C 98.761719 161.628906 98.289062 161.773438 97.800781 161.871094 C 97.316406 161.96875 96.824219 162.015625 96.328125 162.015625 C 95.835938 162.015625 95.34375 161.96875 94.855469 161.871094 C 94.371094 161.773438 93.898438 161.628906 93.441406 161.4375 C 92.984375 161.246094 92.550781 161.011719 92.136719 160.738281 C 91.726562 160.460938 91.34375 160.144531 90.992188 159.792969 C 90.644531 159.441406 90.328125 159.058594 90.054688 158.644531 C 89.78125 158.230469 89.546875 157.792969 89.355469 157.332031 C 89.167969 156.871094 89.023438 156.394531 88.929688 155.90625 C 88.832031 155.417969 88.78125 154.925781 88.78125 154.425781 C 88.78125 153.929688 88.832031 153.433594 88.929688 152.945312 C 89.023438 152.457031 89.167969 151.980469 89.355469 151.523438 C 89.546875 151.0625 89.78125 150.625 90.054688 150.210938 C 90.328125 149.796875 90.644531 149.414062 90.992188 149.058594 C 91.34375 148.707031 91.726562 148.394531 92.136719 148.117188 C 92.550781 147.839844 92.984375 147.605469 93.441406 147.414062 C 93.898438 147.222656 94.371094 147.078125 94.855469 146.984375 C 95.34375 146.886719 95.835938 146.835938 96.328125 146.835938 Z M 96.328125 146.835938 " fill-opacity="1" fill-rule="nonzero"/><g clip-path="url(#e0b8bb8d21)"><path fill="#38b6ff" d="M 28.40625 222.730469 C 28.40625 223.0625 28.375 223.394531 28.3125 223.71875 C 28.246094 224.042969 28.152344 224.359375 28.023438 224.667969 C 27.898438 224.976562 27.742188 225.265625 27.558594 225.542969 C 27.375 225.820312 27.167969 226.074219 26.933594 226.308594 C 26.699219 226.542969 26.445312 226.753906 26.171875 226.9375 C 25.898438 227.125 25.605469 227.277344 25.300781 227.40625 C 24.996094 227.535156 24.683594 227.628906 24.359375 227.695312 C 24.035156 227.757812 23.707031 227.792969 23.375 227.792969 C 23.046875 227.792969 22.71875 227.757812 22.394531 227.695312 C 22.070312 227.628906 21.757812 227.535156 21.453125 227.40625 C 21.144531 227.277344 20.855469 227.125 20.582031 226.9375 C 20.308594 226.753906 20.050781 226.542969 19.820312 226.308594 C 19.585938 226.074219 19.375 225.820312 19.191406 225.542969 C 19.007812 225.265625 18.855469 224.976562 18.726562 224.667969 C 18.601562 224.359375 18.507812 224.042969 18.441406 223.71875 C 18.378906 223.394531 18.34375 223.0625 18.34375 222.730469 C 18.34375 222.398438 18.378906 222.070312 18.441406 221.746094 C 18.507812 221.417969 18.601562 221.101562 18.726562 220.796875 C 18.855469 220.488281 19.007812 220.195312 19.191406 219.921875 C 19.375 219.644531 19.585938 219.390625 19.820312 219.152344 C 20.050781 218.917969 20.308594 218.710938 20.582031 218.523438 C 20.855469 218.339844 21.144531 218.183594 21.453125 218.058594 C 21.757812 217.929688 22.070312 217.835938 22.394531 217.769531 C 22.71875 217.703125 23.046875 217.671875 23.375 217.671875 C 23.707031 217.671875 24.035156 217.703125 24.359375 217.769531 C 24.683594 217.835938 24.996094 217.929688 25.300781 218.058594 C 25.605469 218.183594 25.898438 218.339844 26.171875 218.523438 C 26.445312 218.710938 26.699219 218.917969 26.933594 219.152344 C 27.167969 219.390625 27.375 219.644531 27.558594 219.921875 C 27.742188 220.195312 27.898438 220.488281 28.023438 220.796875 C 28.152344 221.101562 28.246094 221.417969 28.3125 221.746094 C 28.375 222.070312 28.40625 222.398438 28.40625 222.730469 Z M 28.40625 222.730469 " fill-opacity="1" fill-rule="nonzero"/></g><g clip-path="url(#829789092f)"><path fill="#38b6ff" d="M 28.40625 197.433594 C 28.40625 197.765625 28.375 198.09375 28.3125 198.421875 C 28.246094 198.746094 28.152344 199.0625 28.023438 199.371094 C 27.898438 199.675781 27.742188 199.96875 27.558594 200.246094 C 27.375 200.519531 27.167969 200.777344 26.933594 201.011719 C 26.699219 201.246094 26.445312 201.457031 26.171875 201.640625 C 25.898438 201.824219 25.605469 201.980469 25.300781 202.109375 C 24.996094 202.234375 24.683594 202.332031 24.359375 202.394531 C 24.035156 202.460938 23.707031 202.492188 23.375 202.492188 C 23.046875 202.492188 22.71875 202.460938 22.394531 202.394531 C 22.070312 202.332031 21.757812 202.234375 21.453125 202.109375 C 21.144531 201.980469 20.855469 201.824219 20.582031 201.640625 C 20.308594 201.457031 20.050781 201.246094 19.820312 201.011719 C 19.585938 200.777344 19.375 200.519531 19.191406 200.246094 C 19.007812 199.96875 18.855469 199.675781 18.726562 199.371094 C 18.601562 199.0625 18.507812 198.746094 18.441406 198.421875 C 18.378906 198.09375 18.34375 197.765625 18.34375 197.433594 C 18.34375 197.101562 18.378906 196.773438 18.441406 196.445312 C 18.507812 196.121094 18.601562 195.804688 18.726562 195.496094 C 18.855469 195.191406 19.007812 194.898438 19.191406 194.621094 C 19.375 194.347656 19.585938 194.089844 19.820312 193.855469 C 20.050781 193.621094 20.308594 193.410156 20.582031 193.226562 C 20.855469 193.042969 21.144531 192.886719 21.453125 192.757812 C 21.757812 192.632812 22.070312 192.535156 22.394531 192.472656 C 22.71875 192.40625 23.046875 192.375 23.375 192.375 C 23.707031 192.375 24.035156 192.40625 24.359375 192.472656 C 24.683594 192.535156 24.996094 192.632812 25.300781 192.757812 C 25.605469 192.886719 25.898438 193.042969 26.171875 193.226562 C 26.445312 193.410156 26.699219 193.621094 26.933594 193.855469 C 27.167969 194.089844 27.375 194.347656 27.558594 194.621094 C 27.742188 194.898438 27.898438 195.191406 28.023438 195.496094 C 28.152344 195.804688 28.246094 196.121094 28.3125 196.445312 C 28.375 196.773438 28.40625 197.101562 28.40625 197.433594 Z M 28.40625 197.433594 " fill-opacity="1" fill-rule="nonzero"/></g><path stroke-linecap="round" transform="matrix(0, -3.74443, 3.75, 0, 161.363989, 282.13999)" fill="none" stroke-linejoin="miter" d="M 0.499531 -0.000188761 L 49.977193 -0.000188761 " stroke="#000000" stroke-width="1" stroke-opacity="1" stroke-miterlimit="4"/><path fill="#ffffff" d="M 190.691406 148.449219 L 199.078125 148.449219 C 208.539062 148.449219 217.777344 141.917969 217.777344 133.71875 C 217.777344 126.296875 210.207031 118.988281 200.746094 118.988281 L 190.691406 118.988281 Z M 198.59375 148.152344 C 196.40625 148.152344 195.699219 147.671875 195.699219 147.1875 L 195.699219 119.285156 L 199.523438 119.285156 C 206.609375 119.285156 212.285156 126.445312 212.285156 133.71875 C 212.285156 141.734375 205.496094 148.152344 198.59375 148.152344 Z M 198.59375 148.152344 " fill-opacity="1" fill-rule="nonzero"/><path fill="#ffffff" d="M 236.105469 148.820312 C 244.121094 148.820312 251.984375 141.363281 251.984375 133.71875 C 251.984375 126.074219 244.304688 118.617188 236.476562 118.617188 C 228.796875 118.617188 221.300781 126.074219 221.300781 133.71875 C 221.300781 141.363281 228.648438 148.820312 236.105469 148.820312 Z M 236.179688 148.449219 C 231.429688 148.449219 226.753906 141.140625 226.753906 133.71875 C 226.753906 126.296875 231.542969 118.988281 236.402344 118.988281 C 241.523438 118.988281 246.53125 126.296875 246.53125 133.71875 C 246.53125 141.140625 241.410156 148.449219 236.179688 148.449219 Z M 236.179688 148.449219 " fill-opacity="1" fill-rule="nonzero"/><path fill="#ffffff" d="M 270.609375 148.746094 C 274.46875 148.746094 277.917969 147.449219 280.21875 145.742188 C 281.148438 145.183594 282 145.148438 282.074219 145.742188 L 282.113281 146.261719 L 282.261719 146.335938 L 282.261719 141.695312 L 281.777344 141.695312 C 281.703125 141.769531 281.628906 141.917969 281.554688 141.992188 C 280.589844 143.21875 278.996094 144.925781 278.105469 145.628906 C 275.988281 147.226562 273.316406 148.414062 270.683594 148.414062 C 265.785156 148.414062 261 141.101562 261 133.679688 C 261 126.261719 266.007812 118.949219 271.128906 118.949219 C 273.390625 118.949219 275.691406 120.027344 277.695312 121.511719 C 278.808594 122.363281 280.738281 124.332031 281.554688 125.480469 C 281.59375 125.554688 281.742188 125.703125 281.777344 125.777344 L 282.261719 125.777344 L 282.261719 121.140625 L 282.074219 121.140625 L 282.039062 121.660156 C 281.964844 122.214844 281.074219 122.140625 280.144531 121.585938 C 277.917969 119.878906 274.800781 118.542969 271.054688 118.542969 C 263.226562 118.542969 255.542969 126 255.542969 133.644531 C 255.542969 141.289062 263.003906 148.746094 270.609375 148.746094 Z M 270.609375 148.746094 " fill-opacity="1" fill-rule="nonzero"/><path fill="#ffffff" d="M 192.039062 200.949219 L 197.046875 200.949219 L 197.046875 185.921875 L 209.664062 185.921875 L 209.664062 200.949219 L 214.671875 200.949219 L 214.671875 171.488281 L 209.664062 171.488281 L 209.664062 185.515625 L 197.046875 185.515625 L 197.046875 171.488281 L 192.039062 171.488281 Z M 192.039062 200.949219 " fill-opacity="1" fill-rule="nonzero"/><path fill="#ffffff" d="M 234.445312 201.320312 C 242.460938 201.320312 250.324219 193.863281 250.324219 186.21875 C 250.324219 178.574219 242.644531 171.117188 234.816406 171.117188 C 227.136719 171.117188 219.640625 178.574219 219.640625 186.21875 C 219.640625 193.863281 226.988281 201.320312 234.445312 201.320312 Z M 234.519531 200.949219 C 229.769531 200.949219 225.09375 193.640625 225.09375 186.21875 C 225.09375 178.796875 229.882812 171.488281 234.742188 171.488281 C 239.863281 171.488281 244.871094 178.796875 244.871094 186.21875 C 244.871094 193.640625 239.75 200.949219 234.519531 200.949219 Z M 234.519531 200.949219 " fill-opacity="1" fill-rule="nonzero"/><path fill="#ffffff" d="M 263.054688 201.320312 C 266.46875 201.320312 271.214844 198.390625 272.589844 195.421875 L 272.589844 200.949219 L 275.113281 200.949219 L 275.113281 200.984375 C 275.742188 200.839844 277.003906 200.503906 277.636719 200.320312 L 277.636719 171.488281 L 272.589844 171.488281 L 272.589844 193.15625 C 271.4375 195.644531 267.691406 198.09375 265.058594 198.09375 C 262.125 198.09375 259.269531 195.308594 259.269531 192.488281 L 259.269531 171.488281 L 254.257812 171.488281 L 254.257812 192.488281 C 254.257812 196.941406 258.601562 201.320312 263.054688 201.320312 Z M 263.054688 201.320312 " fill-opacity="1" fill-rule="nonzero"/><path fill="#ffffff" d="M 291.101562 201.320312 C 295.664062 201.320312 300.15625 197.164062 300.15625 192.898438 C 300.15625 189.59375 296.816406 185.144531 292.625 183.621094 C 288.988281 182.285156 286.09375 179.316406 286.09375 177.3125 C 286.09375 174.382812 288.132812 171.488281 290.25 171.488281 C 291.511719 171.488281 293.03125 172.117188 294.367188 173.046875 C 294.777344 173.453125 296.445312 175.308594 298.039062 177.128906 L 298.300781 177.425781 L 298.78125 177.425781 L 298.78125 173.378906 L 298.597656 173.378906 L 298.558594 173.789062 C 298.523438 174.195312 297.78125 174.085938 297 173.566406 C 295.183594 172.15625 292.476562 171.082031 290.25 171.082031 C 286.167969 171.082031 282.195312 175.085938 282.195312 179.207031 C 282.195312 182.695312 285.5 187.292969 289.617188 188.777344 C 293.253906 190.113281 296.148438 192.710938 296.148438 194.308594 C 296.148438 197.574219 293.664062 200.800781 291.101562 200.800781 C 289.691406 200.800781 287.800781 199.761719 286.167969 198.277344 C 287.132812 199.132812 285.351562 196.867188 282.53125 193.640625 L 282.269531 193.34375 L 281.75 193.417969 L 281.75 198.835938 L 281.9375 198.835938 L 281.972656 198.09375 C 282.011719 197.277344 283.050781 197.351562 284.089844 198.167969 C 286.128906 199.984375 288.914062 201.320312 291.101562 201.320312 Z M 291.101562 201.320312 " fill-opacity="1" fill-rule="nonzero"/><path fill="#ffffff" d="M 304.792969 200.949219 L 323.234375 200.949219 L 323.269531 200.800781 C 323.308594 200.800781 323.753906 198.019531 323.789062 197.832031 L 323.457031 197.832031 L 323.269531 198.277344 C 322.789062 199.464844 320.449219 200.617188 318.484375 200.617188 L 311.0625 200.617188 C 310.097656 200.617188 309.800781 200.171875 309.800781 199.6875 L 309.800781 185.8125 L 316.183594 185.8125 C 317.667969 185.8125 319.375 187.144531 319.632812 188.480469 L 319.746094 188.964844 L 320.078125 188.964844 L 320.078125 182.324219 L 319.746094 182.324219 L 319.632812 182.804688 C 319.375 184.140625 317.667969 185.476562 316.183594 185.476562 L 309.800781 185.476562 L 309.800781 171.820312 L 318.445312 171.820312 C 319.929688 171.820312 321.785156 173.15625 322.195312 174.492188 L 322.378906 174.976562 L 322.714844 174.976562 L 322.304688 171.636719 L 322.34375 171.636719 L 322.304688 171.488281 L 304.792969 171.488281 Z M 304.792969 200.949219 " fill-opacity="1" fill-rule="nonzero"/><path fill="#ffffff" d="M 204.457031 253.78125 C 209.390625 253.78125 214.808594 252.449219 217.703125 251.113281 L 217.589844 250.925781 C 217 251.1875 216.144531 251.445312 215.105469 251.707031 C 215.144531 249.777344 215.144531 243.691406 215.144531 240.648438 L 210.097656 240.648438 L 210.097656 243.914062 C 210.132812 243.914062 210.132812 247.882812 210.132812 248.367188 C 209.835938 250.703125 207.609375 252.820312 205.308594 252.820312 C 199.894531 252.820312 194.585938 245.84375 194.585938 238.71875 C 194.585938 231.296875 199.597656 223.988281 204.714844 223.988281 C 206.980469 223.988281 209.28125 225.0625 211.285156 226.546875 C 212.398438 227.402344 214.328125 229.367188 215.144531 230.519531 C 215.179688 230.59375 215.328125 230.742188 215.367188 230.816406 L 215.738281 230.816406 L 215.738281 226.175781 L 215.550781 226.175781 L 215.515625 226.695312 C 215.441406 227.253906 214.550781 227.179688 213.621094 226.621094 C 211.394531 224.914062 208.277344 223.582031 204.53125 223.582031 C 196.703125 223.582031 189.019531 231.039062 189.019531 238.679688 C 189.019531 246.324219 196.664062 253.78125 204.457031 253.78125 Z M 204.457031 253.78125 " fill-opacity="1" fill-rule="nonzero"/><path fill="#ffffff" d="M 229.574219 253.820312 C 234.136719 253.820312 238.628906 249.664062 238.628906 245.398438 C 238.628906 242.09375 235.289062 237.644531 231.097656 236.121094 C 227.460938 234.785156 224.566406 231.816406 224.566406 229.8125 C 224.566406 226.882812 226.605469 223.988281 228.722656 223.988281 C 229.984375 223.988281 231.503906 224.617188 232.839844 225.546875 C 233.25 225.953125 234.917969 227.808594 236.511719 229.628906 L 236.773438 229.925781 L 237.253906 229.925781 L 237.253906 225.878906 L 237.070312 225.878906 L 237.03125 226.289062 C 236.996094 226.695312 236.253906 226.585938 235.472656 226.066406 C 233.65625 224.65625 230.949219 223.582031 228.722656 223.582031 C 224.640625 223.582031 220.667969 227.585938 220.667969 231.707031 C 220.667969 235.195312 223.972656 239.792969 228.089844 241.277344 C 231.726562 242.613281 234.621094 245.210938 234.621094 246.808594 C 234.621094 250.074219 232.136719 253.300781 229.574219 253.300781 C 228.164062 253.300781 226.273438 252.261719 224.640625 250.777344 C 225.605469 251.632812 223.824219 249.367188 221.003906 246.140625 L 220.742188 245.84375 L 220.222656 245.917969 L 220.222656 251.335938 L 220.410156 251.335938 L 220.445312 250.59375 C 220.484375 249.777344 221.523438 249.851562 222.5625 250.667969 C 224.601562 252.484375 227.386719 253.820312 229.574219 253.820312 Z M 229.574219 253.820312 " fill-opacity="1" fill-rule="nonzero"/><path fill="#ffffff" d="M 241.667969 253.449219 L 246.011719 253.449219 L 246.011719 253.339844 L 245.789062 253.339844 C 245.269531 253.339844 244.75 252.410156 244.75 251.484375 L 245.046875 228.960938 C 248.421875 237.125 251.761719 245.285156 255.136719 253.449219 L 256.398438 253.449219 L 256.4375 253.265625 L 264.933594 228.699219 L 265.453125 251.707031 C 265.417969 252.558594 264.933594 253.339844 264.414062 253.339844 L 264.191406 253.339844 L 264.15625 253.449219 L 271.796875 253.449219 L 271.796875 253.339844 C 271.054688 253.339844 270.574219 252.707031 270.425781 251.707031 C 270.164062 243.132812 269.867188 234.527344 269.648438 225.953125 C 269.609375 225.027344 270.128906 224.097656 270.648438 224.097656 L 270.871094 224.097656 L 270.871094 223.988281 L 264.785156 223.988281 L 257.214844 247.03125 L 248.980469 223.988281 L 241.742188 223.988281 L 241.742188 224.097656 C 242.523438 224.097656 243.375 224.914062 243.785156 225.917969 L 243.042969 251.742188 C 242.894531 252.746094 242.410156 253.339844 241.667969 253.339844 Z M 241.667969 253.449219 " fill-opacity="1" fill-rule="nonzero"/><path fill="#ffffff" d="M 35.421875 322.347656 C 34.015625 322.347656 32.898438 322.824219 32.078125 323.769531 C 31.265625 324.707031 30.859375 325.996094 30.859375 327.628906 C 30.859375 329.308594 31.25 330.605469 32.03125 331.519531 C 32.820312 332.4375 33.945312 332.894531 35.40625 332.894531 C 36.300781 332.894531 37.320312 332.734375 38.46875 332.410156 L 38.46875 333.722656 C 37.582031 334.054688 36.484375 334.222656 35.171875 334.222656 C 33.285156 334.222656 31.828125 333.652344 30.796875 332.503906 C 29.765625 331.359375 29.25 329.730469 29.25 327.613281 C 29.25 326.292969 29.492188 325.128906 29.984375 324.128906 C 30.484375 323.128906 31.203125 322.363281 32.140625 321.832031 C 33.078125 321.292969 34.175781 321.019531 35.4375 321.019531 C 36.789062 321.019531 37.96875 321.265625 38.96875 321.753906 L 38.34375 323.035156 C 37.375 322.578125 36.398438 322.347656 35.421875 322.347656 Z M 35.421875 322.347656 " fill-opacity="1" fill-rule="nonzero"/><path fill="#ffffff" d="M 46.980469 334.050781 L 46.699219 332.675781 L 46.621094 332.675781 C 46.140625 333.28125 45.660156 333.691406 45.183594 333.910156 C 44.703125 334.117188 44.109375 334.222656 43.402344 334.222656 C 42.441406 334.222656 41.691406 333.980469 41.152344 333.488281 C 40.609375 333 40.339844 332.300781 40.339844 331.394531 C 40.339844 329.449219 41.894531 328.425781 45.011719 328.332031 L 46.636719 328.269531 L 46.636719 327.675781 C 46.636719 326.925781 46.472656 326.371094 46.152344 326.003906 C 45.828125 325.640625 45.308594 325.457031 44.589844 325.457031 C 43.785156 325.457031 42.878906 325.707031 41.871094 326.207031 L 41.417969 325.082031 C 41.894531 324.824219 42.417969 324.621094 42.980469 324.472656 C 43.542969 324.328125 44.109375 324.253906 44.683594 324.253906 C 45.828125 324.253906 46.675781 324.511719 47.230469 325.019531 C 47.78125 325.53125 48.058594 326.347656 48.058594 327.472656 L 48.058594 334.050781 Z M 43.683594 333.019531 C 44.589844 333.019531 45.300781 332.777344 45.824219 332.285156 C 46.34375 331.785156 46.605469 331.082031 46.605469 330.175781 L 46.605469 329.316406 L 45.152344 329.378906 C 43.984375 329.421875 43.144531 329.605469 42.636719 329.925781 C 42.125 330.238281 41.871094 330.734375 41.871094 331.410156 C 41.871094 331.933594 42.027344 332.332031 42.339844 332.613281 C 42.660156 332.886719 43.109375 333.019531 43.683594 333.019531 Z M 43.683594 333.019531 " fill-opacity="1" fill-rule="nonzero"/><path fill="#ffffff" d="M 55.554688 324.253906 C 56.8125 324.253906 57.792969 324.6875 58.492188 325.550781 C 59.199219 326.417969 59.554688 327.640625 59.554688 329.222656 C 59.554688 330.808594 59.199219 332.035156 58.492188 332.910156 C 57.78125 333.785156 56.804688 334.222656 55.554688 334.222656 C 54.929688 334.222656 54.355469 334.105469 53.835938 333.878906 C 53.3125 333.652344 52.875 333.296875 52.523438 332.816406 L 52.429688 332.816406 L 52.117188 334.050781 L 51.070312 334.050781 L 51.070312 320.378906 L 52.523438 320.378906 L 52.523438 323.691406 C 52.523438 324.441406 52.5 325.113281 52.460938 325.707031 L 52.523438 325.707031 C 53.210938 324.738281 54.21875 324.253906 55.554688 324.253906 Z M 55.335938 325.488281 C 54.34375 325.488281 53.625 325.777344 53.179688 326.347656 C 52.742188 326.910156 52.523438 327.871094 52.523438 329.222656 C 52.523438 330.578125 52.746094 331.546875 53.195312 332.128906 C 53.652344 332.714844 54.382812 333.003906 55.382812 333.003906 C 56.277344 333.003906 56.945312 332.683594 57.382812 332.035156 C 57.820312 331.378906 58.039062 330.4375 58.039062 329.207031 C 58.039062 327.957031 57.820312 327.027344 57.382812 326.410156 C 56.945312 325.796875 56.261719 325.488281 55.335938 325.488281 Z M 55.335938 325.488281 " fill-opacity="1" fill-rule="nonzero"/><path fill="#ffffff" d="M 63.554688 334.050781 L 62.101562 334.050781 L 62.101562 324.410156 L 63.554688 324.410156 Z M 61.976562 321.800781 C 61.976562 321.46875 62.058594 321.230469 62.226562 321.082031 C 62.390625 320.925781 62.59375 320.847656 62.835938 320.847656 C 63.074219 320.847656 63.277344 320.925781 63.445312 321.082031 C 63.609375 321.238281 63.695312 321.480469 63.695312 321.800781 C 63.695312 322.136719 63.609375 322.386719 63.445312 322.550781 C 63.277344 322.707031 63.074219 322.785156 62.835938 322.785156 C 62.59375 322.785156 62.390625 322.707031 62.226562 322.550781 C 62.058594 322.386719 61.976562 322.136719 61.976562 321.800781 Z M 61.976562 321.800781 " fill-opacity="1" fill-rule="nonzero"/><path fill="#ffffff" d="M 73.246094 334.050781 L 73.246094 327.816406 C 73.246094 327.035156 73.0625 326.453125 72.699219 326.066406 C 72.34375 325.683594 71.785156 325.488281 71.027344 325.488281 C 70.015625 325.488281 69.277344 325.761719 68.808594 326.300781 C 68.339844 326.84375 68.105469 327.746094 68.105469 329.003906 L 68.105469 334.050781 L 66.652344 334.050781 L 66.652344 324.410156 L 67.839844 324.410156 L 68.074219 325.738281 L 68.152344 325.738281 C 68.441406 325.261719 68.859375 324.890625 69.402344 324.628906 C 69.941406 324.371094 70.542969 324.238281 71.199219 324.238281 C 72.363281 324.238281 73.238281 324.519531 73.824219 325.082031 C 74.40625 325.644531 74.699219 326.542969 74.699219 327.769531 L 74.699219 334.050781 Z M 73.246094 334.050781 " fill-opacity="1" fill-rule="nonzero"/><path fill="#ffffff" d="M 81.761719 334.222656 C 80.34375 334.222656 79.222656 333.792969 78.402344 332.925781 C 77.578125 332.0625 77.167969 330.859375 77.167969 329.316406 C 77.167969 327.765625 77.546875 326.53125 78.308594 325.613281 C 79.078125 324.699219 80.105469 324.238281 81.386719 324.238281 C 82.59375 324.238281 83.546875 324.640625 84.246094 325.441406 C 84.953125 326.234375 85.308594 327.28125 85.308594 328.582031 L 85.308594 329.503906 L 78.667969 329.503906 C 78.699219 330.628906 78.984375 331.488281 79.527344 332.082031 C 80.066406 332.667969 80.832031 332.957031 81.824219 332.957031 C 82.855469 332.957031 83.878906 332.738281 84.902344 332.300781 L 84.902344 333.597656 C 84.378906 333.828125 83.890625 333.988281 83.433594 334.082031 C 82.972656 334.175781 82.417969 334.222656 81.761719 334.222656 Z M 81.371094 325.457031 C 80.597656 325.457031 79.984375 325.714844 79.527344 326.222656 C 79.066406 326.722656 78.796875 327.421875 78.714844 328.316406 L 83.746094 328.316406 C 83.746094 327.390625 83.535156 326.683594 83.121094 326.191406 C 82.714844 325.703125 82.128906 325.457031 81.371094 325.457031 Z M 81.371094 325.457031 " fill-opacity="1" fill-rule="nonzero"/><path fill="#ffffff" d="M 90.910156 333.019531 C 91.167969 333.019531 91.417969 333.003906 91.660156 332.972656 C 91.898438 332.933594 92.089844 332.890625 92.238281 332.847656 L 92.238281 333.957031 C 92.070312 334.042969 91.832031 334.101562 91.519531 334.144531 C 91.214844 334.195312 90.945312 334.222656 90.707031 334.222656 C 88.839844 334.222656 87.910156 333.246094 87.910156 331.285156 L 87.910156 325.550781 L 86.519531 325.550781 L 86.519531 324.847656 L 87.910156 324.238281 L 88.519531 322.191406 L 89.363281 322.191406 L 89.363281 324.410156 L 92.160156 324.410156 L 92.160156 325.550781 L 89.363281 325.550781 L 89.363281 331.222656 C 89.363281 331.808594 89.496094 332.253906 89.769531 332.566406 C 90.050781 332.871094 90.429688 333.019531 90.910156 333.019531 Z M 90.910156 333.019531 " fill-opacity="1" fill-rule="nonzero"/><path fill="#ffffff" d="M 111.109375 334.050781 L 111.109375 327.785156 C 111.109375 327.015625 110.941406 326.441406 110.609375 326.066406 C 110.285156 325.683594 109.773438 325.488281 109.078125 325.488281 C 108.171875 325.488281 107.5 325.75 107.0625 326.269531 C 106.632812 326.792969 106.421875 327.59375 106.421875 328.675781 L 106.421875 334.050781 L 104.96875 334.050781 L 104.96875 327.785156 C 104.96875 327.015625 104.800781 326.441406 104.46875 326.066406 C 104.144531 325.683594 103.632812 325.488281 102.9375 325.488281 C 102.019531 325.488281 101.347656 325.765625 100.921875 326.316406 C 100.492188 326.859375 100.28125 327.753906 100.28125 329.003906 L 100.28125 334.050781 L 98.828125 334.050781 L 98.828125 324.410156 L 100.015625 324.410156 L 100.25 325.738281 L 100.328125 325.738281 C 100.597656 325.269531 100.984375 324.90625 101.484375 324.644531 C 101.984375 324.375 102.546875 324.238281 103.171875 324.238281 C 104.671875 324.238281 105.65625 324.785156 106.125 325.878906 L 106.1875 325.878906 C 106.476562 325.371094 106.894531 324.96875 107.4375 324.675781 C 107.988281 324.386719 108.613281 324.238281 109.3125 324.238281 C 110.394531 324.238281 111.207031 324.519531 111.75 325.082031 C 112.289062 325.644531 112.5625 326.542969 112.5625 327.769531 L 112.5625 334.050781 Z M 111.109375 334.050781 " fill-opacity="1" fill-rule="nonzero"/><path fill="#ffffff" d="M 119.632812 334.222656 C 118.214844 334.222656 117.09375 333.792969 116.273438 332.925781 C 115.449219 332.0625 115.039062 330.859375 115.039062 329.316406 C 115.039062 327.765625 115.417969 326.53125 116.179688 325.613281 C 116.949219 324.699219 117.976562 324.238281 119.257812 324.238281 C 120.464844 324.238281 121.417969 324.640625 122.117188 325.441406 C 122.824219 326.234375 123.179688 327.28125 123.179688 328.582031 L 123.179688 329.503906 L 116.539062 329.503906 C 116.570312 330.628906 116.855469 331.488281 117.398438 332.082031 C 117.9375 332.667969 118.703125 332.957031 119.695312 332.957031 C 120.726562 332.957031 121.75 332.738281 122.773438 332.300781 L 122.773438 333.597656 C 122.25 333.828125 121.761719 333.988281 121.304688 334.082031 C 120.84375 334.175781 120.289062 334.222656 119.632812 334.222656 Z M 119.242188 325.457031 C 118.46875 325.457031 117.855469 325.714844 117.398438 326.222656 C 116.9375 326.722656 116.667969 327.421875 116.585938 328.316406 L 121.617188 328.316406 C 121.617188 327.390625 121.40625 326.683594 120.992188 326.191406 C 120.585938 325.703125 120 325.457031 119.242188 325.457031 Z M 119.242188 325.457031 " fill-opacity="1" fill-rule="nonzero"/><path fill="#ffffff" d="M 132.234375 332.753906 L 132.15625 332.753906 C 131.476562 333.734375 130.46875 334.222656 129.125 334.222656 C 127.863281 334.222656 126.882812 333.796875 126.1875 332.941406 C 125.488281 332.078125 125.140625 330.847656 125.140625 329.253906 C 125.140625 327.671875 125.488281 326.441406 126.1875 325.566406 C 126.894531 324.683594 127.875 324.238281 129.125 324.238281 C 130.4375 324.238281 131.4375 324.714844 132.125 325.660156 L 132.25 325.660156 L 132.1875 324.972656 L 132.15625 324.300781 L 132.15625 320.378906 L 133.609375 320.378906 L 133.609375 334.050781 L 132.421875 334.050781 Z M 129.3125 333.003906 C 130.3125 333.003906 131.035156 332.734375 131.484375 332.191406 C 131.929688 331.652344 132.15625 330.777344 132.15625 329.566406 L 132.15625 329.253906 C 132.15625 327.890625 131.925781 326.917969 131.46875 326.332031 C 131.007812 325.75 130.285156 325.457031 129.296875 325.457031 C 128.441406 325.457031 127.785156 325.792969 127.328125 326.457031 C 126.867188 327.125 126.640625 328.066406 126.640625 329.285156 C 126.640625 330.515625 126.863281 331.441406 127.3125 332.066406 C 127.769531 332.691406 128.4375 333.003906 129.3125 333.003906 Z M 129.3125 333.003906 " fill-opacity="1" fill-rule="nonzero"/><path fill="#ffffff" d="M 138.152344 334.050781 L 136.699219 334.050781 L 136.699219 324.410156 L 138.152344 324.410156 Z M 136.574219 321.800781 C 136.574219 321.46875 136.65625 321.230469 136.824219 321.082031 C 136.988281 320.925781 137.191406 320.847656 137.433594 320.847656 C 137.671875 320.847656 137.875 320.925781 138.042969 321.082031 C 138.207031 321.238281 138.292969 321.480469 138.292969 321.800781 C 138.292969 322.136719 138.207031 322.386719 138.042969 322.550781 C 137.875 322.707031 137.671875 322.785156 137.433594 322.785156 C 137.191406 322.785156 136.988281 322.707031 136.824219 322.550781 C 136.65625 322.386719 136.574219 322.136719 136.574219 321.800781 Z M 136.574219 321.800781 " fill-opacity="1" fill-rule="nonzero"/><path fill="#ffffff" d="M 145.097656 334.222656 C 143.710938 334.222656 142.632812 333.796875 141.863281 332.941406 C 141.101562 332.078125 140.722656 330.863281 140.722656 329.300781 C 140.722656 327.6875 141.105469 326.441406 141.878906 325.566406 C 142.660156 324.683594 143.769531 324.238281 145.207031 324.238281 C 145.664062 324.238281 146.121094 324.292969 146.582031 324.394531 C 147.050781 324.488281 147.414062 324.605469 147.675781 324.738281 L 147.238281 325.988281 C 146.914062 325.855469 146.558594 325.746094 146.175781 325.660156 C 145.789062 325.578125 145.449219 325.535156 145.160156 325.535156 C 143.199219 325.535156 142.222656 326.785156 142.222656 329.285156 C 142.222656 330.464844 142.460938 331.371094 142.941406 332.003906 C 143.417969 332.640625 144.128906 332.957031 145.066406 332.957031 C 145.867188 332.957031 146.691406 332.78125 147.535156 332.425781 L 147.535156 333.722656 C 146.886719 334.054688 146.074219 334.222656 145.097656 334.222656 Z M 145.097656 334.222656 " fill-opacity="1" fill-rule="nonzero"/><path fill="#ffffff" d="M 155.746094 334.050781 L 155.464844 332.675781 L 155.386719 332.675781 C 154.90625 333.28125 154.425781 333.691406 153.949219 333.910156 C 153.46875 334.117188 152.875 334.222656 152.167969 334.222656 C 151.207031 334.222656 150.457031 333.980469 149.917969 333.488281 C 149.375 333 149.105469 332.300781 149.105469 331.394531 C 149.105469 329.449219 150.660156 328.425781 153.777344 328.332031 L 155.402344 328.269531 L 155.402344 327.675781 C 155.402344 326.925781 155.238281 326.371094 154.917969 326.003906 C 154.59375 325.640625 154.074219 325.457031 153.355469 325.457031 C 152.550781 325.457031 151.644531 325.707031 150.636719 326.207031 L 150.183594 325.082031 C 150.660156 324.824219 151.183594 324.621094 151.746094 324.472656 C 152.308594 324.328125 152.875 324.253906 153.449219 324.253906 C 154.59375 324.253906 155.441406 324.511719 155.996094 325.019531 C 156.546875 325.53125 156.824219 326.347656 156.824219 327.472656 L 156.824219 334.050781 Z M 152.449219 333.019531 C 153.355469 333.019531 154.066406 332.777344 154.589844 332.285156 C 155.109375 331.785156 155.371094 331.082031 155.371094 330.175781 L 155.371094 329.316406 L 153.917969 329.378906 C 152.75 329.421875 151.910156 329.605469 151.402344 329.925781 C 150.890625 330.238281 150.636719 330.734375 150.636719 331.410156 C 150.636719 331.933594 150.792969 332.332031 151.105469 332.613281 C 151.425781 332.886719 151.875 333.019531 152.449219 333.019531 Z M 152.449219 333.019531 " fill-opacity="1" fill-rule="nonzero"/><path fill="#ffffff" d="M 159.832031 320.378906 L 161.285156 320.378906 L 161.285156 334.050781 L 159.832031 334.050781 Z M 159.832031 320.378906 " fill-opacity="1" fill-rule="nonzero"/><path fill="#ffffff" d="M 173.546875 334.222656 C 172.921875 334.222656 172.347656 334.105469 171.828125 333.878906 C 171.304688 333.652344 170.867188 333.296875 170.515625 332.816406 L 170.421875 332.816406 C 170.484375 333.378906 170.515625 333.910156 170.515625 334.410156 L 170.515625 338.378906 L 169.0625 338.378906 L 169.0625 324.410156 L 170.25 324.410156 L 170.453125 325.738281 L 170.515625 325.738281 C 170.890625 325.207031 171.328125 324.828125 171.828125 324.597656 C 172.328125 324.359375 172.898438 324.238281 173.546875 324.238281 C 174.828125 324.238281 175.8125 324.675781 176.5 325.550781 C 177.195312 326.425781 177.546875 327.652344 177.546875 329.222656 C 177.546875 330.808594 177.191406 332.035156 176.484375 332.910156 C 175.773438 333.785156 174.796875 334.222656 173.546875 334.222656 Z M 173.328125 325.488281 C 172.347656 325.488281 171.640625 325.761719 171.203125 326.300781 C 170.765625 326.84375 170.535156 327.707031 170.515625 328.894531 L 170.515625 329.222656 C 170.515625 330.578125 170.738281 331.546875 171.1875 332.128906 C 171.644531 332.714844 172.375 333.003906 173.375 333.003906 C 174.207031 333.003906 174.859375 332.671875 175.328125 332.003906 C 175.796875 331.328125 176.03125 330.394531 176.03125 329.207031 C 176.03125 328.011719 175.796875 327.09375 175.328125 326.457031 C 174.859375 325.8125 174.191406 325.488281 173.328125 325.488281 Z M 173.328125 325.488281 " fill-opacity="1" fill-rule="nonzero"/><path fill="#ffffff" d="M 184.15625 334.222656 C 182.738281 334.222656 181.617188 333.792969 180.796875 332.925781 C 179.972656 332.0625 179.5625 330.859375 179.5625 329.316406 C 179.5625 327.765625 179.941406 326.53125 180.703125 325.613281 C 181.472656 324.699219 182.5 324.238281 183.78125 324.238281 C 184.988281 324.238281 185.941406 324.640625 186.640625 325.441406 C 187.347656 326.234375 187.703125 327.28125 187.703125 328.582031 L 187.703125 329.503906 L 181.0625 329.503906 C 181.09375 330.628906 181.378906 331.488281 181.921875 332.082031 C 182.460938 332.667969 183.226562 332.957031 184.21875 332.957031 C 185.25 332.957031 186.273438 332.738281 187.296875 332.300781 L 187.296875 333.597656 C 186.773438 333.828125 186.285156 333.988281 185.828125 334.082031 C 185.367188 334.175781 184.8125 334.222656 184.15625 334.222656 Z M 183.765625 325.457031 C 182.992188 325.457031 182.378906 325.714844 181.921875 326.222656 C 181.460938 326.722656 181.191406 327.421875 181.109375 328.316406 L 186.140625 328.316406 C 186.140625 327.390625 185.929688 326.683594 185.515625 326.191406 C 185.109375 325.703125 184.523438 325.457031 183.765625 325.457031 Z M 183.765625 325.457031 " fill-opacity="1" fill-rule="nonzero"/><path fill="#ffffff" d="M 196.785156 334.050781 L 196.785156 327.816406 C 196.785156 327.035156 196.601562 326.453125 196.238281 326.066406 C 195.882812 325.683594 195.324219 325.488281 194.566406 325.488281 C 193.554688 325.488281 192.816406 325.761719 192.347656 326.300781 C 191.878906 326.84375 191.644531 327.746094 191.644531 329.003906 L 191.644531 334.050781 L 190.191406 334.050781 L 190.191406 324.410156 L 191.378906 324.410156 L 191.613281 325.738281 L 191.691406 325.738281 C 191.980469 325.261719 192.398438 324.890625 192.941406 324.628906 C 193.480469 324.371094 194.082031 324.238281 194.738281 324.238281 C 195.902344 324.238281 196.777344 324.519531 197.363281 325.082031 C 197.945312 325.644531 198.238281 326.542969 198.238281 327.769531 L 198.238281 334.050781 Z M 196.785156 334.050781 " fill-opacity="1" fill-rule="nonzero"/><path fill="#ffffff" d="M 204.347656 333.019531 C 204.605469 333.019531 204.855469 333.003906 205.097656 332.972656 C 205.335938 332.933594 205.527344 332.890625 205.675781 332.847656 L 205.675781 333.957031 C 205.507812 334.042969 205.269531 334.101562 204.957031 334.144531 C 204.652344 334.195312 204.382812 334.222656 204.144531 334.222656 C 202.277344 334.222656 201.347656 333.246094 201.347656 331.285156 L 201.347656 325.550781 L 199.957031 325.550781 L 199.957031 324.847656 L 201.347656 324.238281 L 201.957031 322.191406 L 202.800781 322.191406 L 202.800781 324.410156 L 205.597656 324.410156 L 205.597656 325.550781 L 202.800781 325.550781 L 202.800781 331.222656 C 202.800781 331.808594 202.933594 332.253906 203.207031 332.566406 C 203.488281 332.871094 203.867188 333.019531 204.347656 333.019531 Z M 204.347656 333.019531 " fill-opacity="1" fill-rule="nonzero"/><path fill="#ffffff" d="M 211.984375 324.238281 C 212.410156 324.238281 212.796875 324.277344 213.140625 324.347656 L 212.9375 325.707031 C 212.539062 325.613281 212.191406 325.566406 211.890625 325.566406 C 211.109375 325.566406 210.4375 325.886719 209.875 326.519531 C 209.320312 327.15625 209.046875 327.941406 209.046875 328.878906 L 209.046875 334.050781 L 207.59375 334.050781 L 207.59375 324.410156 L 208.796875 324.410156 L 208.96875 326.207031 L 209.03125 326.207031 C 209.394531 325.574219 209.828125 325.089844 210.328125 324.753906 C 210.828125 324.410156 211.378906 324.238281 211.984375 324.238281 Z M 211.984375 324.238281 " fill-opacity="1" fill-rule="nonzero"/><path fill="#ffffff" d="M 216.316406 324.410156 L 216.316406 330.660156 C 216.316406 331.453125 216.492188 332.042969 216.847656 332.425781 C 217.199219 332.8125 217.761719 333.003906 218.535156 333.003906 C 219.535156 333.003906 220.269531 332.730469 220.738281 332.175781 C 221.207031 331.625 221.441406 330.722656 221.441406 329.472656 L 221.441406 324.410156 L 222.894531 324.410156 L 222.894531 334.050781 L 221.691406 334.050781 L 221.488281 332.753906 L 221.394531 332.753906 C 221.101562 333.234375 220.691406 333.597656 220.160156 333.847656 C 219.628906 334.097656 219.023438 334.222656 218.347656 334.222656 C 217.167969 334.222656 216.289062 333.949219 215.707031 333.394531 C 215.121094 332.832031 214.832031 331.941406 214.832031 330.722656 L 214.832031 324.410156 Z M 216.316406 324.410156 " fill-opacity="1" fill-rule="nonzero"/><path fill="#ffffff" d="M 233.773438 333.019531 C 234.03125 333.019531 234.28125 333.003906 234.523438 332.972656 C 234.761719 332.933594 234.953125 332.890625 235.101562 332.847656 L 235.101562 333.957031 C 234.933594 334.042969 234.695312 334.101562 234.382812 334.144531 C 234.078125 334.195312 233.808594 334.222656 233.570312 334.222656 C 231.703125 334.222656 230.773438 333.246094 230.773438 331.285156 L 230.773438 325.550781 L 229.382812 325.550781 L 229.382812 324.847656 L 230.773438 324.238281 L 231.382812 322.191406 L 232.226562 322.191406 L 232.226562 324.410156 L 235.023438 324.410156 L 235.023438 325.550781 L 232.226562 325.550781 L 232.226562 331.222656 C 232.226562 331.808594 232.359375 332.253906 232.632812 332.566406 C 232.914062 332.871094 233.292969 333.019531 233.773438 333.019531 Z M 233.773438 333.019531 " fill-opacity="1" fill-rule="nonzero"/><path fill="#ffffff" d="M 241.082031 334.222656 C 239.664062 334.222656 238.542969 333.792969 237.722656 332.925781 C 236.898438 332.0625 236.488281 330.859375 236.488281 329.316406 C 236.488281 327.765625 236.867188 326.53125 237.628906 325.613281 C 238.398438 324.699219 239.425781 324.238281 240.707031 324.238281 C 241.914062 324.238281 242.867188 324.640625 243.566406 325.441406 C 244.273438 326.234375 244.628906 327.28125 244.628906 328.582031 L 244.628906 329.503906 L 237.988281 329.503906 C 238.019531 330.628906 238.304688 331.488281 238.847656 332.082031 C 239.386719 332.667969 240.152344 332.957031 241.144531 332.957031 C 242.175781 332.957031 243.199219 332.738281 244.222656 332.300781 L 244.222656 333.597656 C 243.699219 333.828125 243.210938 333.988281 242.753906 334.082031 C 242.292969 334.175781 241.738281 334.222656 241.082031 334.222656 Z M 240.691406 325.457031 C 239.917969 325.457031 239.304688 325.714844 238.847656 326.222656 C 238.386719 326.722656 238.117188 327.421875 238.035156 328.316406 L 243.066406 328.316406 C 243.066406 327.390625 242.855469 326.683594 242.441406 326.191406 C 242.035156 325.703125 241.449219 325.457031 240.691406 325.457031 Z M 240.691406 325.457031 " fill-opacity="1" fill-rule="nonzero"/><path fill="#ffffff" d="M 247.117188 320.378906 L 248.570312 320.378906 L 248.570312 334.050781 L 247.117188 334.050781 Z M 247.117188 320.378906 " fill-opacity="1" fill-rule="nonzero"/><path fill="#ffffff" d="M 255.734375 334.222656 C 254.316406 334.222656 253.195312 333.792969 252.375 332.925781 C 251.550781 332.0625 251.140625 330.859375 251.140625 329.316406 C 251.140625 327.765625 251.519531 326.53125 252.28125 325.613281 C 253.050781 324.699219 254.078125 324.238281 255.359375 324.238281 C 256.566406 324.238281 257.519531 324.640625 258.21875 325.441406 C 258.925781 326.234375 259.28125 327.28125 259.28125 328.582031 L 259.28125 329.503906 L 252.640625 329.503906 C 252.671875 330.628906 252.957031 331.488281 253.5 332.082031 C 254.039062 332.667969 254.804688 332.957031 255.796875 332.957031 C 256.828125 332.957031 257.851562 332.738281 258.875 332.300781 L 258.875 333.597656 C 258.351562 333.828125 257.863281 333.988281 257.40625 334.082031 C 256.945312 334.175781 256.390625 334.222656 255.734375 334.222656 Z M 255.34375 325.457031 C 254.570312 325.457031 253.957031 325.714844 253.5 326.222656 C 253.039062 326.722656 252.769531 327.421875 252.6875 328.316406 L 257.71875 328.316406 C 257.71875 327.390625 257.507812 326.683594 257.09375 326.191406 C 256.6875 325.703125 256.101562 325.457031 255.34375 325.457031 Z M 255.34375 325.457031 " fill-opacity="1" fill-rule="nonzero"/><path fill="#ffffff" d="M 266.113281 325.550781 L 263.660156 325.550781 L 263.660156 334.050781 L 262.207031 334.050781 L 262.207031 325.550781 L 260.472656 325.550781 L 260.472656 324.894531 L 262.207031 324.363281 L 262.207031 323.832031 C 262.207031 321.46875 263.238281 320.285156 265.300781 320.285156 C 265.808594 320.285156 266.410156 320.386719 267.097656 320.582031 L 266.722656 321.753906 C 266.160156 321.578125 265.675781 321.488281 265.269531 321.488281 C 264.726562 321.488281 264.320312 321.671875 264.050781 322.035156 C 263.789062 322.402344 263.660156 322.988281 263.660156 323.800781 L 263.660156 324.410156 L 266.113281 324.410156 Z M 266.113281 325.550781 " fill-opacity="1" fill-rule="nonzero"/><path fill="#ffffff" d="M 276.179688 329.222656 C 276.179688 330.796875 275.78125 332.027344 274.992188 332.910156 C 274.199219 333.785156 273.105469 334.222656 271.710938 334.222656 C 270.855469 334.222656 270.089844 334.027344 269.414062 333.628906 C 268.746094 333.222656 268.230469 332.640625 267.867188 331.878906 C 267.511719 331.121094 267.335938 330.234375 267.335938 329.222656 C 267.335938 327.652344 267.726562 326.425781 268.507812 325.550781 C 269.289062 324.675781 270.375 324.238281 271.773438 324.238281 C 273.125 324.238281 274.199219 324.6875 274.992188 325.582031 C 275.78125 326.480469 276.179688 327.691406 276.179688 329.222656 Z M 268.835938 329.222656 C 268.835938 330.453125 269.078125 331.390625 269.570312 332.035156 C 270.070312 332.683594 270.796875 333.003906 271.757812 333.003906 C 272.703125 333.003906 273.421875 332.6875 273.914062 332.050781 C 274.414062 331.40625 274.664062 330.464844 274.664062 329.222656 C 274.664062 328.003906 274.414062 327.078125 273.914062 326.441406 C 273.421875 325.808594 272.699219 325.488281 271.742188 325.488281 C 270.78125 325.488281 270.058594 325.800781 269.570312 326.425781 C 269.078125 327.050781 268.835938 327.984375 268.835938 329.222656 Z M 268.835938 329.222656 " fill-opacity="1" fill-rule="nonzero"/><path fill="#ffffff" d="M 285.335938 334.050781 L 285.335938 327.816406 C 285.335938 327.035156 285.152344 326.453125 284.789062 326.066406 C 284.433594 325.683594 283.875 325.488281 283.117188 325.488281 C 282.105469 325.488281 281.367188 325.761719 280.898438 326.300781 C 280.429688 326.84375 280.195312 327.746094 280.195312 329.003906 L 280.195312 334.050781 L 278.742188 334.050781 L 278.742188 324.410156 L 279.929688 324.410156 L 280.164062 325.738281 L 280.242188 325.738281 C 280.53125 325.261719 280.949219 324.890625 281.492188 324.628906 C 282.03125 324.371094 282.632812 324.238281 283.289062 324.238281 C 284.453125 324.238281 285.328125 324.519531 285.914062 325.082031 C 286.496094 325.644531 286.789062 326.542969 286.789062 327.769531 L 286.789062 334.050781 Z M 285.335938 334.050781 " fill-opacity="1" fill-rule="nonzero"/><path fill="#ffffff" d="M 291.164062 324.410156 L 291.164062 330.660156 C 291.164062 331.453125 291.339844 332.042969 291.695312 332.425781 C 292.046875 332.8125 292.609375 333.003906 293.382812 333.003906 C 294.382812 333.003906 295.117188 332.730469 295.585938 332.175781 C 296.054688 331.625 296.289062 330.722656 296.289062 329.472656 L 296.289062 324.410156 L 297.742188 324.410156 L 297.742188 334.050781 L 296.539062 334.050781 L 296.335938 332.753906 L 296.242188 332.753906 C 295.949219 333.234375 295.539062 333.597656 295.007812 333.847656 C 294.476562 334.097656 293.871094 334.222656 293.195312 334.222656 C 292.015625 334.222656 291.136719 333.949219 290.554688 333.394531 C 289.96875 332.832031 289.679688 331.941406 289.679688 330.722656 L 289.679688 324.410156 Z M 291.164062 324.410156 " fill-opacity="1" fill-rule="nonzero"/><path fill="#ffffff" d="M 300.835938 320.378906 L 302.289062 320.378906 L 302.289062 334.050781 L 300.835938 334.050781 Z M 300.835938 320.378906 " fill-opacity="1" fill-rule="nonzero"/><path fill="#ffffff" d="M 313.175781 333.019531 C 313.433594 333.019531 313.683594 333.003906 313.925781 332.972656 C 314.164062 332.933594 314.355469 332.890625 314.503906 332.847656 L 314.503906 333.957031 C 314.335938 334.042969 314.097656 334.101562 313.785156 334.144531 C 313.480469 334.195312 313.210938 334.222656 312.972656 334.222656 C 311.105469 334.222656 310.175781 333.246094 310.175781 331.285156 L 310.175781 325.550781 L 308.785156 325.550781 L 308.785156 324.847656 L 310.175781 324.238281 L 310.785156 322.191406 L 311.628906 322.191406 L 311.628906 324.410156 L 314.425781 324.410156 L 314.425781 325.550781 L 311.628906 325.550781 L 311.628906 331.222656 C 311.628906 331.808594 311.761719 332.253906 312.035156 332.566406 C 312.316406 332.871094 312.695312 333.019531 313.175781 333.019531 Z M 313.175781 333.019531 " fill-opacity="1" fill-rule="nonzero"/><path fill="#ffffff" d="M 322.339844 334.050781 L 322.058594 332.675781 L 321.980469 332.675781 C 321.5 333.28125 321.019531 333.691406 320.542969 333.910156 C 320.0625 334.117188 319.46875 334.222656 318.761719 334.222656 C 317.800781 334.222656 317.050781 333.980469 316.511719 333.488281 C 315.96875 333 315.699219 332.300781 315.699219 331.394531 C 315.699219 329.449219 317.253906 328.425781 320.371094 328.332031 L 321.996094 328.269531 L 321.996094 327.675781 C 321.996094 326.925781 321.832031 326.371094 321.511719 326.003906 C 321.1875 325.640625 320.667969 325.457031 319.949219 325.457031 C 319.144531 325.457031 318.238281 325.707031 317.230469 326.207031 L 316.777344 325.082031 C 317.253906 324.824219 317.777344 324.621094 318.339844 324.472656 C 318.902344 324.328125 319.46875 324.253906 320.042969 324.253906 C 321.1875 324.253906 322.035156 324.511719 322.589844 325.019531 C 323.140625 325.53125 323.417969 326.347656 323.417969 327.472656 L 323.417969 334.050781 Z M 319.042969 333.019531 C 319.949219 333.019531 320.660156 332.777344 321.183594 332.285156 C 321.703125 331.785156 321.964844 331.082031 321.964844 330.175781 L 321.964844 329.316406 L 320.511719 329.378906 C 319.34375 329.421875 318.503906 329.605469 317.996094 329.925781 C 317.484375 330.238281 317.230469 330.734375 317.230469 331.410156 C 317.230469 331.933594 317.386719 332.332031 317.699219 332.613281 C 318.019531 332.886719 318.46875 333.019531 319.042969 333.019531 Z M 320.121094 323.144531 C 319.308594 323.144531 318.671875 322.949219 318.214844 322.550781 C 317.753906 322.144531 317.5 321.558594 317.449219 320.785156 L 318.355469 320.785156 C 318.394531 321.078125 318.472656 321.308594 318.589844 321.472656 C 318.714844 321.628906 318.878906 321.75 319.089844 321.832031 C 319.308594 321.90625 319.667969 321.941406 320.167969 321.941406 C 320.75 321.941406 321.183594 321.847656 321.464844 321.660156 C 321.746094 321.472656 321.917969 321.183594 321.980469 320.785156 L 322.902344 320.785156 C 322.839844 321.527344 322.5625 322.105469 322.074219 322.519531 C 321.582031 322.9375 320.933594 323.144531 320.121094 323.144531 Z M 320.121094 323.144531 " fill-opacity="1" fill-rule="nonzero"/><path fill="#ffffff" d="M 327.804688 324.410156 L 327.804688 330.660156 C 327.804688 331.453125 327.980469 332.042969 328.335938 332.425781 C 328.6875 332.8125 329.25 333.003906 330.023438 333.003906 C 331.023438 333.003906 331.757812 332.730469 332.226562 332.175781 C 332.695312 331.625 332.929688 330.722656 332.929688 329.472656 L 332.929688 324.410156 L 334.382812 324.410156 L 334.382812 334.050781 L 333.179688 334.050781 L 332.976562 332.753906 L 332.882812 332.753906 C 332.589844 333.234375 332.179688 333.597656 331.648438 333.847656 C 331.117188 334.097656 330.511719 334.222656 329.835938 334.222656 C 328.65625 334.222656 327.777344 333.949219 327.195312 333.394531 C 326.609375 332.832031 326.320312 331.941406 326.320312 330.722656 L 326.320312 324.410156 Z M 327.804688 324.410156 " fill-opacity="1" fill-rule="nonzero"/><path fill="#ffffff" d="M 343.464844 330.503906 L 342.542969 330.503906 L 342.105469 321.207031 L 343.917969 321.207031 Z M 341.949219 333.113281 C 341.949219 332.324219 342.296875 331.925781 342.996094 331.925781 C 343.339844 331.925781 343.597656 332.03125 343.777344 332.238281 C 343.964844 332.4375 344.058594 332.730469 344.058594 333.113281 C 344.058594 333.488281 343.964844 333.78125 343.777344 333.988281 C 343.589844 334.195312 343.328125 334.300781 342.996094 334.300781 C 342.691406 334.300781 342.441406 334.210938 342.246094 334.035156 C 342.046875 333.847656 341.949219 333.542969 341.949219 333.113281 Z M 341.949219 333.113281 " fill-opacity="1" fill-rule="nonzero"/></svg>