<svg xmlns="http://www.w3.org/2000/svg" viewBox="0 0 24 24"><path fill="#F31001" d="M2.98 12.528c1.822 1.782 6.232 4.022 7.267 4.53 0 0 .06.03.1-.01l.02-.04v-.04C7.54 10.806 3.707 6.167 3.707 6.167S1.865 7.929 1.765 9.79v.348c.08 1.504 1.215 2.39 1.215 2.39zM9.073 3.23a3.413 3.413 0 0 0-2.559 3.128v.416c.03.597.159 1.045.159 1.045.657 2.887 3.843 7.616 4.53 8.611.05.05.1.03.1.03a.1.1 0 0 0 .06-.092v-.009C12.417 5.807 10.257 3 10.257 3c-.318.02-1.184.229-1.184.23zM14.418 18.501H14.428zM14.369 18.65c.697.508 2.837 1.991 3.863 2.29 0 0 .159.05.428.06h.14c.687-.02 1.891-.368 2.987-2.25l-7.359-.249c-.003 0-.068.001-.088.049-.001.001-.011.071.029.1zM2.781 17.645a4.115 4.115 0 0 0 1.394.309c.119.02 4.38 0 5.515 0 .05 0 .08-.05.08-.05v-.06c0-.03-.03-.05-.03-.05-3.225-2.18-9.477-5.515-9.477-5.515a4.5 4.5 0 0 0-.209 1.294v.07c0 1.065.398 1.812.398 1.812.796 1.682 2.329 2.19 2.329 2.19zm10.891-.597.04.01h.06c1.055-.528 5.435-2.757 7.247-4.52 0 0 1.145-.926 1.205-2.409.139-2.051-1.931-3.952-1.931-3.962 0 0-3.833 4.639-6.64 10.752-.001-.001-.031.079.019.129zM14.906 3.22s-.567-.139-1.165-.219c0 0-2.17 2.797-1.115 13.37.01.07.06.08.06.08.07.03.1-.03.1-.03.717-1.025 3.882-5.734 4.53-8.601 0 0 .358-1.394.02-2.33-.001 0-.489-1.792-2.43-2.27zM5.757 20.94c.956-.249 3.146-1.772 3.863-2.29.06-.05.04-.09.04-.09v.01c-.02-.08-.1-.08-.1-.08l-7.347.26c.797 1.424 2.141 2.519 3.544 2.19zm17.98-8.681s-6.252 3.355-9.477 5.525c0 0-.05.04-.03.109 0 0 .03.06.07.06 1.155 0 5.535 0 5.645-.02 0 0 .568-.02 1.264-.289 0 0 1.553-.498 2.359-2.26-.001.001.726-1.442.169-3.125z"/></svg>